<?xml version="1.0" standalone="no"?><!DOCTYPE svg PUBLIC "-//W3C//DTD SVG 1.1//EN"
    "http://www.w3.org/Graphics/SVG/1.1/DTD/svg11.dtd">
<svg class="icon" width="64px" height="64.00px" viewBox="0 0 1024 1024" version="1.1"
    xmlns="http://www.w3.org/2000/svg">
    <path fill="#ffffff"
        d="M938.154667 724.096l-133.461334 135.04-133.418666-134.997333c-2.474667-2.56-4.906667-4.138667-6.442667-5.162667-11.477333-7.808-28.16-8.234667-37.034667-3.712a41.002667 41.002667 0 0 0-12.970666 8.832l-161.450667 163.285333a40.874667 40.874667 0 0 0 0 57.045334c15.744 15.914667 42.88 14.677333 55.893333 0l133.461334-135.04 133.461333 135.04c7.68 7.765333 17.322667 11.861333 27.989333 11.861333 2.133333 0 5.461333 0 7.424-0.768a40.277333 40.277333 0 0 0 20.522667-11.093333l160.768-162.730667a38.954667 38.954667 0 0 0 1.664-57.6 40.704 40.704 0 0 0-56.405333 0z m-469.461334-132.864c155.434667-1.664 281.898667-131.328 281.898667-289.066667C750.08 143.36 621.738667 14.208 464.426667 14.208 307.2 14.208 179.285333 143.872 179.285333 303.232a288.128 288.128 0 0 0 129.322667 241.365333c-174.506667 65.834667-294.4 237.952-294.4 427.178667 0 21.333333 16.512 37.973333 37.589333 37.973333 21.034667 0 37.546667-16.64 37.546667-37.973333 0-209.536 167.552-380.032 373.546667-380.032 1.109333 0 2.474667-0.128 5.802666-0.512z m-4.266666-501.034667c115.797333 0 210.005333 95.36 210.005333 212.522667s-94.208 212.48-210.005333 212.48c-115.84 0-210.048-95.317333-210.048-212.48 0-117.162667 94.208-212.48 210.048-212.48z" />
</svg>