<?xml version="1.0" standalone="no"?><!DOCTYPE svg PUBLIC "-//W3C//DTD SVG 1.1//EN"
    "http://www.w3.org/Graphics/SVG/1.1/DTD/svg11.dtd">
<svg class="icon" width="64px" height="64.00px" viewBox="0 0 1024 1024" version="1.1"
    xmlns="http://www.w3.org/2000/svg">
    <path fill="#ffffff"
        d="M336.816 313.28a76.384 76.384 0 0 0-53.952 22.288l-115.744 115.52A75.92 75.92 0 0 0 144.8 504.8v185.92a41.168 41.168 0 0 0 41.248 41.104h62.352a116.384 116.384 0 0 1 112.752-87.376 116.384 116.384 0 0 1 112.752 87.36h124.72a116.384 116.384 0 0 1 112.752-87.36 116.384 116.384 0 0 1 112.752 87.36h9.824a41.168 41.168 0 0 0 41.248-41.088v-113.168H534.08c-35.2 0-63.824-28.48-63.824-63.744V313.28h-133.44z m-94.624-18.48a133.984 133.984 0 0 1 94.624-39.12h162.24a28.8 28.8 0 0 1 28.8 28.8v229.344c0 3.328 2.72 6.144 6.224 6.144H904a28.8 28.8 0 0 1 28.8 28.8v141.968c0 54.56-44.32 98.704-98.848 98.704h-35.024a28.8 28.8 0 0 1-28.8-28.8c0-32.304-26.24-58.576-58.752-58.576a58.656 58.656 0 0 0-58.752 58.56 28.8 28.8 0 0 1-28.8 28.8H448.72a28.8 28.8 0 0 1-28.8-28.8c0-32.288-26.256-58.56-58.768-58.56a58.656 58.656 0 0 0-58.752 58.56 28.8 28.8 0 0 1-28.8 28.8h-87.552a98.768 98.768 0 0 1-98.848-98.688v-185.92c0-35.456 14.112-69.456 39.232-94.512l115.744-115.52z" />
    <path fill="#ffffff"
        d="M359.552 700.8a58.656 58.656 0 0 0-58.752 58.56c0 32.288 26.24 58.576 58.752 58.576a58.656 58.656 0 0 0 58.752-58.56c0-32.288-26.24-58.576-58.752-58.576zM243.2 759.36c0-64.208 52.16-116.16 116.352-116.16 64.208 0 116.352 51.952 116.352 116.16 0 64.224-52.16 116.176-116.352 116.176-64.208 0-116.352-51.952-116.352-116.16zM711.552 700.8a58.656 58.656 0 0 0-58.752 58.56c0 32.288 26.24 58.576 58.752 58.576a58.656 58.656 0 0 0 58.752-58.56c0-32.288-26.24-58.576-58.752-58.576zM595.2 759.36c0-64.208 52.16-116.16 116.352-116.16 64.208 0 116.368 51.952 116.368 116.16 0 64.224-52.16 116.176-116.368 116.176s-116.352-51.952-116.352-116.16zM343.52 379.664a28.8 28.8 0 0 1-0.032 40.72l-71.152 70.992a28.8 28.8 0 1 1-40.672-40.768l71.136-70.992a28.8 28.8 0 0 1 40.72 0.048zM471.2 208a60.8 60.8 0 0 1 60.8-60.8H872a60.8 60.8 0 0 1 60.8 60.8v336a28.8 28.8 0 0 1-28.8 28.8H532a60.8 60.8 0 0 1-60.8-60.8V208z m60.8-3.2a3.2 3.2 0 0 0-3.2 3.2v304c0 1.76 1.44 3.2 3.2 3.2H875.2V208a3.2 3.2 0 0 0-3.2-3.2H532z" />
    <path fill="#ffffff"
        d="M692 243.2a28.8 28.8 0 0 1 28.8 28.8v85.328h77.872a28.8 28.8 0 0 1 0 57.6H692a28.8 28.8 0 0 1-28.8-28.8V272a28.8 28.8 0 0 1 28.8-28.8z" />
</svg>