<?xml version="1.0" standalone="no"?><!DOCTYPE svg PUBLIC "-//W3C//DTD SVG 1.1//EN" "http://www.w3.org/Graphics/SVG/1.1/DTD/svg11.dtd"><svg class="icon" width="64px" height="64.00px" viewBox="0 0 1024 1024" version="1.1" xmlns="http://www.w3.org/2000/svg"><path fill="#ffffff" d="M771.9424 74.4448H666.624a73.3696 73.3696 0 0 0-68.7104 49.6128 95.744 95.744 0 0 1-180.7872 0 73.3696 73.3696 0 0 0-68.7104-49.6128H243.0976a118.3744 118.3744 0 0 0-118.272 118.272v632.2688a118.3744 118.3744 0 0 0 118.272 118.272H348.16a73.3696 73.3696 0 0 0 68.864-49.9712 95.744 95.744 0 0 1 181.0944 0 73.3696 73.3696 0 0 0 68.864 49.9712h105.0112a118.4256 118.4256 0 0 0 118.272-118.272V192.7168a118.4256 118.4256 0 0 0-118.3232-118.272z m0 817.6128h-105.0112a21.9648 21.9648 0 0 1-20.48-15.36 146.9952 146.9952 0 0 0-277.9136 0 21.8624 21.8624 0 0 1-20.48 15.36h-104.96a67.1744 67.1744 0 0 1-67.072-67.072v-85.76h12.9536a29.0816 29.0816 0 0 0 0-58.1632h-12.9536V192.7168a67.1744 67.1744 0 0 1 67.072-67.072h105.3184a21.8624 21.8624 0 0 1 20.48 15.36 146.9952 146.9952 0 0 0 277.4528 0 21.8624 21.8624 0 0 1 20.48-15.36h105.3184a67.1744 67.1744 0 0 1 67.072 67.072V680.96h-12.9536a29.0816 29.0816 0 0 0 0 58.1632h12.9536v85.76a67.1744 67.1744 0 0 1-67.2768 67.1744z"  /><path fill="#ffffff" d="M636.3648 521.8304a25.6 25.6 0 0 0-25.6-25.6H536.064V450.56h74.7008a25.6 25.6 0 0 0 0-51.2h-51.2l72.5504-88.4736a25.6 25.6 0 1 0-39.5776-32.4608l-81.92 99.9936-81.92-98.816A25.6 25.6 0 0 0 389.12 312.32l72.192 87.04h-51.2a25.6 25.6 0 0 0 0 51.2h74.752v45.568H410.1632a25.6 25.6 0 0 0 0 51.2H484.864v41.472a25.6 25.6 0 0 0 51.2 0v-41.4208h74.7008a25.6 25.6 0 0 0 25.6-25.5488zM362.7008 680.96H304.7936a29.0816 29.0816 0 0 0 0 58.1632h57.9072a29.0816 29.0816 0 0 0 0-58.1632zM536.4736 680.96H478.5664a29.0816 29.0816 0 0 0 0 58.1632h57.9072a29.0816 29.0816 0 0 0 0-58.1632zM710.2464 680.96H652.288a29.0816 29.0816 0 0 0 0 58.1632h57.9584a29.0816 29.0816 0 0 0 0-58.1632z"  /></svg>