<?xml version="1.0" standalone="no"?><!DOCTYPE svg PUBLIC "-//W3C//DTD SVG 1.1//EN" "http://www.w3.org/Graphics/SVG/1.1/DTD/svg11.dtd"><svg class="icon" width="64px" height="64.00px" viewBox="0 0 1024 1024" version="1.1" xmlns="http://www.w3.org/2000/svg"><path fill="#ffffff" d="M511.9488 0.0512C229.2224 0.0512 0 229.2736 0 512c0 282.7776 229.2224 512.0512 512 512.0512 282.7264 0 512-229.2736 512-512.0512C1024 229.2736 794.7264 0.0512 511.9488 0.0512z m0 956.3648c-244.992 0-444.3648-199.3728-444.3648-444.416 0-244.992 199.3728-444.3648 444.3648-444.3648 245.0432 0 444.3648 199.3728 444.3648 444.3648 0 245.0432-199.3216 444.416-444.3648 444.416z m233.0624-531.0976l-0.1024-1.0752-0.1024-0.9728-0.1024-0.7168-0.2048-1.0752-0.1024-0.5632-0.2048-1.0752-0.1536-0.5632-0.256-1.0752-0.2048-0.5632-0.3072-0.9728-0.2048-0.6656-0.3072-0.8192-0.3072-0.768-0.256-0.4608-0.4096-0.8704-0.3072-0.5632-0.4608-0.9216-0.256-0.512-0.6144-0.9728a2.048 2.048 0 0 0-0.256-0.4608l-0.6144-0.9728-0.3584-0.4608-0.6144-0.9216-0.4096-0.512-0.6144-0.768-0.8192-0.9216a2.2016 2.2016 0 0 0-0.3072-0.3584l-1.1264-1.2288-10.752-10.7008-116.6336-116.224-16.9472-16.896a33.7408 33.7408 0 1 0-47.616 47.8208l16.9472 16.896 69.5296 69.2736h-318.976a33.7408 33.7408 0 1 0 0 67.4304H711.3728l1.5872-0.0512 0.9216-0.0512 0.8192-0.0512L715.776 460.8l0.512-0.0512c0.4096 0.1536 0.8192 0.0512 1.1776 0l0.4608-0.1024a6.144 6.144 0 0 0 1.1264-0.256 14.7456 14.7456 0 0 0 1.536-0.4096l0.512-0.1536 1.024-0.3072 0.6144-0.2048a6.2464 6.2464 0 0 0 0.8704-0.3584 4.5056 4.5056 0 0 0 0.768-0.256 10.0352 10.0352 0 0 1 0.7168-0.3072l2.304-1.1264 0.4608-0.256 1.024-0.5632 0.3584-0.256c0.4096-0.2048 0.7168-0.4608 1.024-0.6656l0.4096-0.256 1.024-0.7168 0.3072-0.3072a11.776 11.776 0 0 0 0.9728-0.7168l0.4608-0.4096 0.8192-0.7168a24.9856 24.9856 0 0 0 1.1776-1.1264l0.512-0.512 0.6656-0.7168a8.9088 8.9088 0 0 0 0.6144-0.7168 5.4272 5.4272 0 0 0 0.4608-0.5632l0.7168-0.8192a4.5056 4.5056 0 0 0 0.3072-0.512l0.7168-0.9216 0.3072-0.4096 0.6144-0.9728a9.5232 9.5232 0 0 1 0.8192-1.4336 2.4064 2.4064 0 0 0 0.256-0.512l0.4608-0.9216 0.3072-0.6144a4.5568 4.5568 0 0 0 0.4096-0.8704l0.3072-0.6656 0.3072-0.8192 0.3072-0.8192a2.9696 2.9696 0 0 0 0.256-0.7168l0.256-0.9216 0.2048-0.6144 0.3072-1.024 0.1024-0.6144a3.328 3.328 0 0 0 0.2048-1.024c0.1024-0.2048 0.1024-0.4096 0.1024-0.6656a5.4272 5.4272 0 0 0 0.2048-0.9728l0.1024-0.768 0.1024-0.8704 0.1024-0.9728v-0.0512l0.0512-1.3824 0.0512-0.256v-0.0512l-0.1024-1.6384v-0.6144z m-33.6896 147.2512H310.5792l-1.6384 0.0512-0.9216 0.0512-0.768 0.0512-1.0752 0.1536-0.512 0.0512-1.1264 0.2048-0.4608 0.1024a8.9088 8.9088 0 0 0-1.1264 0.256l-0.4608 0.1024-1.0752 0.3072-0.512 0.1536-0.9728 0.3072-0.6144 0.2048-0.8192 0.3584-0.7168 0.256c-0.256 0.1024-0.5632 0.1024-0.8192 0.256l-0.8704 0.3584-0.5632 0.3072-0.9216 0.4608a2.048 2.048 0 0 1-0.4608 0.256l-0.9728 0.6144-0.3584 0.2048-1.024 0.6656-0.3072 0.256-1.024 0.7168-0.3584 0.3072a11.776 11.776 0 0 0-1.4336 1.1264l-0.8192 0.7168-1.1776 1.1264-0.4608 0.512-0.6656 0.7168a8.9088 8.9088 0 0 0-0.6144 0.7168 5.4272 5.4272 0 0 0-0.4608 0.5632l-0.6656 0.8192-0.3584 0.512-0.6656 0.8704-0.3072 0.4608-0.6144 0.9728a2.048 2.048 0 0 0-0.256 0.4608l-0.5632 0.9728a1.5872 1.5872 0 0 0-0.256 0.512l-0.4608 0.9216-0.256 0.5632-0.4096 0.9216-0.256 0.6656-0.3072 0.8192-0.3072 0.8192-0.2048 0.6656a6.144 6.144 0 0 0-0.256 0.9216l-0.1536 0.6656a6.8096 6.8096 0 0 0-0.256 0.9728l-0.1536 0.6656c-0.1024-0.2048-0.2048 0.1536-0.256 0.4608l-0.1024 0.6656-0.1536 1.024-0.1024 0.768-0.1024 0.8704-0.0512 0.9728-0.0512 0.7168v1.6384a18.0736 18.0736 0 0 0 0.1024 2.304l0.0512 1.0752 0.1024 0.9728 0.0512 0.7168 0.1536 1.0752 0.1024 0.5632 0.2048 1.0752 0.1536 0.5632a5.9904 5.9904 0 0 0 0.256 1.024l0.1536 0.6144 0.3072 0.9728 0.2048 0.6656 0.3072 0.8192 0.3072 0.768 0.3072 0.7168 0.3584 0.8704a5.632 5.632 0 0 1 0.3072 0.5632l0.4608 0.9216 0.256 0.512 0.512 0.9728 0.3072 0.4608 0.6144 0.9728 0.3072 0.4608 0.6656 0.8704a2.2528 2.2528 0 0 0 0.4096 0.5632l0.6144 0.768 0.768 0.9216a8.96 8.96 0 0 0 1.4848 1.5872l10.752 10.7008 116.6336 116.224 16.9472 16.896a33.7408 33.7408 0 1 0 47.616-47.8208l-16.9472-16.896L392.2432 640h319.0272a33.7408 33.7408 0 0 0 0.0512-67.4304z"  /></svg>