<?xml version="1.0" standalone="no"?><!DOCTYPE svg PUBLIC "-//W3C//DTD SVG 1.1//EN" "http://www.w3.org/Graphics/SVG/1.1/DTD/svg11.dtd"><svg class="icon" width="48px" height="47.95px" viewBox="0 0 1025 1024" version="1.1" xmlns="http://www.w3.org/2000/svg"><path fill="#dbdbdb" d="M736.601515 136.871134a216.831065 216.831065 0 0 1 216.61479 216.645687c0 39.331141-10.504782 76.468636-28.98084 108.261051l47.117038 59.78457a286.595178 286.595178 0 0 0 54.130525-168.045621c0-159.33283-129.579579-288.91241-288.91241-288.91241a288.819721 288.819721 0 0 0-245.070392 136.067827l48.507377 61.731045a216.583894 216.583894 0 0 1 196.593912-125.532149z m0 0"  /><path fill="#dbdbdb" d="M931.465226 561.511511l-47.117038-59.846363L793.420028 386.205232a34.295025 34.295025 0 0 0-59.25933 0l-84.069155 106.530851-149.971216-190.445524-48.507377-61.700148-23.543071-29.876836c-20.422533-35.345503-71.401623-35.345503-91.607881 0L8.71279 626.888332a52.956461 52.956461 0 0 0 45.881182 79.465589H975.399934c26.354645 0 42.884229-28.486498 29.691458-51.349848l-73.626166-93.492562zM774.94397 790.577558a30.062215 30.062215 0 0 0-30.093112-30.062215H88.734514a30.093112 30.093112 0 0 0-26.045681 45.077874 29.969526 29.969526 0 0 0 26.045681 15.01566h655.961862a30.000422 30.000422 0 0 0 30.247594-30.031319zM865.161512 868.80729H166.964246a30.124008 30.124008 0 0 0-26.045681 45.108771 30.093112 30.093112 0 0 0 26.045681 15.015659h698.197266a30.154905 30.154905 0 0 0 26.045681-15.015659 30.247594 30.247594 0 0 0 0-30.093112 30.154905 30.154905 0 0 0-26.045681-15.015659zM925.285943 760.515343h-84.223637a30.124008 30.124008 0 0 0-26.014785 14.984763 29.969526 29.969526 0 0 0 0 30.093111 29.969526 29.969526 0 0 0 26.014785 15.01566h84.223637a30.062215 30.062215 0 1 0 0-60.093534z"  /></svg>