<?xml version="1.0" standalone="no"?><!DOCTYPE svg PUBLIC "-//W3C//DTD SVG 1.1//EN"
    "http://www.w3.org/Graphics/SVG/1.1/DTD/svg11.dtd">
<svg class="icon" width="64px" height="64.00px" viewBox="0 0 1024 1024" version="1.1"
    xmlns="http://www.w3.org/2000/svg">
    <path
        d="M673.536 599.586909H721.454545v33.105455h-64.314181v28.928H721.454545v33.28h-64.314181V744.727273h-34.420364v-49.687273H558.545455v-33.454545h64.174545V632.669091h1.000727l-1.000727-1.268364v1.28H558.545455v-33.117091h44.276363l-35.874909-56.855272 29.346909-17.256728 41.506909 65.978182L683.531636 523.636364l28.625455 18.094545z"
        fill="#ffffff" />
    <path d="M629.073455 640.709818h-1.419637v-1.419636z" fill="#3B9DFF" />
    <path d="M629.073455 640.709818h-1.419637v-1.419636z" fill="#3B9DFF" />
    <path
        d="M759.051636 502.062545a8.226909 8.226909 0 0 0 0-1.88509V313.553455a24.087273 24.087273 0 0 0-0.267636-4.573091C753.233455 235.927273 615.109818 197.818182 478.510545 197.818182c-136.587636 0-274.885818 38.109091-280.401454 111.162182a24.087273 24.087273 0 0 0-0.279273 4.573091v375.272727c0 76.055273 141.149091 115.735273 280.715637 115.735273 19.048727 0 38.085818-0.709818 56.552727-2.280728A184.145455 184.145455 0 0 0 626.362182 826.181818c76.218182 0.011636 144.930909-46.312727 173.975273-117.341091 29.056-71.016727 12.706909-152.692364-41.37891-206.813091l0.093091 0.034909zM478.650182 240.814545c145.233455 0 237.917091 43.101091 237.917091 72.773819 0 29.672727-92.683636 72.773818-237.917091 72.773818-145.233455 0-238.056727-43.101091-238.056727-72.773818 0-29.672727 92.648727-72.773818 238.056727-72.773819z m-238.08 137.006546c52.282182 33.943273 145.536 51.432727 238.045091 51.432727 92.509091 0 185.623273-17.489455 237.917091-51.432727v92.206545a185.239273 185.239273 0 0 0-90.100364-23.191272c-79.336727 0.058182-150.109091 50.245818-176.954182 125.474909-129.745455-5.294545-208.919273-44.706909-208.919273-72.192v-122.298182zM478.603636 761.530182c-145.408 0-238.056727-43.089455-238.056727-72.773818V563.700364a437.829818 437.829818 0 0 0 198.981818 51.223272 178.013091 178.013091 0 0 0-1.28 21.480728c0 46.033455 16.616727 90.484364 46.754909 125.056l-6.4 0.069818z m147.816728 21.620363c-80.384 0-145.547636-65.664-145.547637-146.676363 0-81.000727 65.163636-146.676364 145.547637-146.676364 80.372364 0 145.536 65.675636 145.536 146.676364-0.034909 80.989091-65.140364 146.664727-145.512728 146.781091l-0.023272-0.104728z"
        fill="#ffffff" />
</svg>