<?xml version="1.0" standalone="no"?><!DOCTYPE svg PUBLIC "-//W3C//DTD SVG 1.1//EN" "http://www.w3.org/Graphics/SVG/1.1/DTD/svg11.dtd"><svg class="icon" width="64px" height="64.00px" viewBox="0 0 1024 1024" version="1.1" xmlns="http://www.w3.org/2000/svg"><path fill="#ffffff" d="M89.506909 378.228364l420.770909 464.244363L930.909091 378.321455l-133.632-201.076364H223.092364l-133.585455 200.983273z m-55.202909 29.696A40.587636 40.587636 0 0 1 30.254545 357.376l146.059637-219.741091c8.843636-13.218909 24.669091-21.271273 41.751273-21.271273h584.28509c17.082182 0 32.954182 8.098909 41.751273 21.364364l146.059637 219.741091a40.587636 40.587636 0 0 1-4.049455 50.548364l-438.178909 483.514181c-9.309091 10.24-23.133091 16.104727-37.701818 16.104728-14.661818 0-28.485818-5.957818-37.701818-16.197819L34.257455 407.924364z m262.888727-108.916364h426.030546a30.440727 30.440727 0 1 1 0 60.834909H297.192727a30.440727 30.440727 0 1 1 0-60.881454z"  /></svg>