<?xml version="1.0" standalone="no"?><!DOCTYPE svg PUBLIC "-//W3C//DTD SVG 1.1//EN" "http://www.w3.org/Graphics/SVG/1.1/DTD/svg11.dtd"><svg class="icon" width="64px" height="64.00px" viewBox="0 0 1024 1024" version="1.1" xmlns="http://www.w3.org/2000/svg"><path fill="#ffffff" d="M323.72 128.68L81.83 404.46l430.35 466.13 430.58-466.46-239.44-275.45h-379.6z m-10.39-69.13h400.4c12.72 0 24.81 5.51 33.14 15.1l266.29 306.41c14.68 16.89 14.3 42.12-0.88 58.57L544.46 946.49a43.903 43.903 0 0 1-32.27 14.14c-12.26 0-23.96-5.12-32.27-14.14L12.18 439.76c-15.21-16.5-15.54-41.82-0.75-58.7L280.31 74.47a43.924 43.924 0 0 1 33.02-14.92z m198.86 536.61l150.39-167.08 59.49 53.56-209.88 233.17-209.88-233.18 59.49-53.56 150.39 167.09z m0 2.29"  /></svg>