<?xml version="1.0" standalone="no"?><!DOCTYPE svg PUBLIC "-//W3C//DTD SVG 1.1//EN" "http://www.w3.org/Graphics/SVG/1.1/DTD/svg11.dtd"><svg class="icon" width="48px" height="48.00px" viewBox="0 0 1024 1024" version="1.1" xmlns="http://www.w3.org/2000/svg"><path fill="#dbdbdb" d="M932.8128 811.008H92.928c-16.9472 0-30.72 13.7728-30.72 30.72s13.7728 30.72 30.72 30.72h839.8848c16.9472 0 30.72-13.7728 30.72-30.72s-13.7216-30.72-30.72-30.72zM579.9936 250.0096c7.5776-12.1344 12.032-26.4704 12.032-41.8304 0-43.7248-35.4304-79.1552-79.1552-79.1552-43.7248 0-79.1552 35.4304-79.1552 79.1552 0 15.4112 4.4544 29.7472 12.0832 41.9328-220.8256 33.024-388.864 226.8672-388.864 456.6016 0 26.9312 21.8624 48.7936 48.7936 48.7936h814.2336c26.9312 0 48.7936-21.8624 48.7936-48.7936v-5.7344c0-228.9664-168.8064-418.5088-388.7616-450.9696zM390.2976 402.8416c-1.6896 0.6656-117.2992 45.6192-160.4608 159.5392a30.7456 30.7456 0 0 1-28.7232 19.8656c-3.6352 0-7.2704-0.6656-10.8544-1.9968-15.872-5.9904-23.8592-23.7568-17.8688-39.6288 53.3504-140.8 190.6176-193.1776 196.4544-195.328 15.9232-5.888 33.5872 2.2016 39.4752 18.1248 5.888 15.872-2.1504 33.536-18.0224 39.424z"  /></svg>