<?xml version="1.0" standalone="no"?><!DOCTYPE svg PUBLIC "-//W3C//DTD SVG 1.1//EN" "http://www.w3.org/Graphics/SVG/1.1/DTD/svg11.dtd"><svg class="icon" width="48px" height="47.40px" viewBox="0 0 1037 1024" version="1.1" xmlns="http://www.w3.org/2000/svg"><path fill="#ffffff" d="M887.68987 345.127786H760.709629v-76.290818c0-64.695417-25.199629-125.529421-70.945104-171.274895-45.745474-45.745474-106.579478-70.945104-171.274895-70.945104S392.960209 51.816599 347.214735 97.562073s-70.945104 106.579478-70.945104 171.274895v76.290818H149.28939c-47.59806 0-86.323797 38.725737-86.323797 86.323797v494.294414c0 47.59806 38.725737 86.323797 86.323797 86.323798h738.40048c47.59806 0 86.323797-38.725737 86.323797-86.323798V431.451583c0-47.59806-38.725737-86.323797-86.323797-86.323797z m-555.619465-76.290818c0-102.785025 83.62304-186.419225 186.419225-186.419225s186.419225 83.62304 186.419225 186.419225v76.290818H332.070405v-76.290818z m586.142488 656.909029c0 16.829513-13.69351 30.523023-30.523023 30.523024H149.27823c-16.829513 0-30.523023-13.69351-30.523023-30.523024V431.451583c0-16.829513 13.69351-30.523023 30.523023-30.523023h738.41164c16.829513 0 30.523023 13.69351 30.523023 30.523023v494.294414zM546.390017 573.241349v125.127655c0 15.412174-12.488213 27.900387-27.900387 27.900387s-27.900387-12.488213-27.900387-27.900387V573.241349c0-15.412174 12.488213-27.900387 27.900387-27.900387s27.900387 12.488213 27.900387 27.900387z" /></svg>