<?xml version="1.0" standalone="no"?><!DOCTYPE svg PUBLIC "-//W3C//DTD SVG 1.1//EN" "http://www.w3.org/Graphics/SVG/1.1/DTD/svg11.dtd"><svg class="icon" width="64px" height="64.00px" viewBox="0 0 1024 1024" version="1.1" xmlns="http://www.w3.org/2000/svg"><path fill="#ffffff" d="M512 938.1c-57.5 0-113.3-11.3-165.9-33.5-50.7-21.5-96.3-52.2-135.4-91.3s-69.8-84.7-91.3-135.4C97.2 625.3 85.9 569.5 85.9 512s11.3-113.3 33.5-165.9c21.5-50.7 52.2-96.3 91.3-135.4s84.7-69.8 135.4-91.3C398.7 97.2 454.5 85.9 512 85.9s113.3 11.3 165.9 33.5c50.7 21.5 96.3 52.2 135.4 91.3s69.8 84.7 91.3 135.4c22.2 52.5 33.5 108.3 33.5 165.9s-11.3 113.3-33.5 165.9c-21.5 50.7-52.2 96.3-91.3 135.4s-84.7 69.8-135.4 91.3c-52.6 22.2-108.4 33.5-165.9 33.5z m0-802.2c-100.5 0-194.9 39.1-265.9 110.2-71 71-110.2 165.5-110.2 265.9S175 706.9 246.1 777.9c71 71 165.5 110.2 265.9 110.2 100.5 0 194.9-39.1 265.9-110.2S888.1 612.5 888.1 512 849 317.1 777.9 246.1 612.5 135.9 512 135.9z"  /><path fill="#ffffff" d="M415.8 775.2c-1.7 0-3.5-0.2-5.2-0.5-10.1-1.9-18.5-9-22-18.7-1.2-3.3-1.5-6.8-0.8-10.2L422 555.5l-75-13.8c-10.1-1.9-18.5-9-22-18.7-3.4-9.7-1.4-20.6 5.2-28.4 0.5-0.6 1.1-1.2 1.7-1.7l255.3-235.1c6.7-7 16.5-10.3 26.1-8.5 10.1 1.9 18.5 9 22 18.7 1.2 3.3 1.5 6.8 0.8 10.2l-34.2 190.3 75.1 13.8c10.1 1.9 18.5 9 22 18.7 3.4 9.7 1.5 20.6-5.2 28.4-0.5 0.6-1.1 1.2-1.7 1.8l-255.3 235c-5.5 5.8-13.1 9-21 9z m-8.4-36.1z m-31.2-232.7l72.6 13.3c10.8 2 18 12.4 16.1 23.2l-30.8 171.3 213.6-196.7-72.6-13.3c-10.8-2-18-12.4-16.1-23.2l30.8-171.3-213.6 196.7z m293.6 15.2z m-53.2-236.7z"  /></svg>