<?xml version="1.0" standalone="no"?><!DOCTYPE svg PUBLIC "-//W3C//DTD SVG 1.1//EN" "http://www.w3.org/Graphics/SVG/1.1/DTD/svg11.dtd"><svg class="icon" width="64px" height="64.00px" viewBox="0 0 1024 1024" version="1.1" xmlns="http://www.w3.org/2000/svg"><path d="M458.688133 12.994528a113.663716 113.663716 0 0 1 105.855736 0.127999l397.695005 209.791476c37.247907 19.647951 60.607848 58.367854 60.607849 100.479749v373.759065c0 41.983895-23.103942 80.511799-60.15985 100.287749L565.119867 1009.600036a113.663716 113.663716 0 0 1-107.007732 0L60.16113 797.440566A113.663716 113.663716 0 0 1 0.00128 697.152817V322.433754c0-42.239894 23.423941-80.959798 60.799848-100.607749L458.752133 12.994528z m7.103983 62.399844L117.312987 258.305914C84.481069 275.457871 64.00112 309.441786 64.00112 346.433694v328.191179c0 36.735908 20.287949 70.527824 52.735868 87.807781l348.607129 185.855535a99.583751 99.583751 0 0 0 93.695765 0l348.28713-185.855535c32.447919-17.279957 52.671868-51.071872 52.671868-87.807781V347.265692c0-36.927908-20.479949-70.783823-53.119867-88.06378L558.527884 75.522371a99.583751 99.583751 0 0 0-92.735768-0.127999z" fill="#ffffff" /><path d="M166.784863 569.473136h35.519911c14.911963 0 29.183927 5.887985 39.807901 16.31996l45.631886 44.799888a28.415929 28.415929 0 0 0 45.311886-7.743981l74.623814-151.039623a22.719943 22.719943 0 0 1 41.343896 1.215997l85.375787 202.751494a56.831858 56.831858 0 0 0 101.887745 5.887985l55.231862-97.727756a28.415929 28.415929 0 0 1 24.703938-14.463964h121.343697a38.271904 38.271904 0 0 0 0-76.479808h-152.511619a28.415929 28.415929 0 0 0-24.831938 14.719963L613.759746 591.361082a22.719943 22.719943 0 0 1-40.959898-2.623994L480.256079 355.84167a56.831858 56.831858 0 0 0-104.959737-1.599996L306.560514 513.409276a22.719943 22.719943 0 0 1-36.671909 7.295982l-12.159969-11.71197a56.831858 56.831858 0 0 0-39.487902-15.99996H165.760866a37.759906 37.759906 0 0 0-37.695906 37.759905V531.201232a38.783903 38.783903 0 0 0 38.783903 38.207904z" fill="#ffffff" /></svg>