<?xml version="1.0" standalone="no"?><!DOCTYPE svg PUBLIC "-//W3C//DTD SVG 1.1//EN" "http://www.w3.org/Graphics/SVG/1.1/DTD/svg11.dtd"><svg class="icon" width="64px" height="64.00px" viewBox="0 0 1024 1024" version="1.1" xmlns="http://www.w3.org/2000/svg"><path d="M801.68 82.747H222.06c-77.187 0-139.894 62.837-139.894 140.025v579.49c0 77.189 62.836 140.025 140.024 140.025h579.49c77.189 0 140.025-62.836 140.025-140.024V222.772c-0.13-77.188-62.836-140.025-140.024-140.025z m69.948 719.516c0 38.529-31.418 69.947-69.947 69.947H222.06c-38.659 0-69.948-31.418-69.948-69.947V222.772c0-38.659 31.418-69.948 69.948-69.948h579.49c38.53 0 69.948 31.418 69.948 69.948v579.49z m0 0" fill="#ffffff" /><path d="M444.962 285.996l-128.518 117.14-39.175-43.314c-12.93-14.351-35.168-15.386-49.39-2.456-14.352 12.929-15.386 35.167-2.457 49.39l62.837 69.3c6.206 6.853 14.998 10.99 24.307 11.508 9.309 0.388 18.36-2.845 25.212-9.05l154.376-140.8c14.351-13.06 15.256-35.169 2.327-49.39-13.059-14.352-35.297-15.387-49.52-2.328zM335.709 582.723c-65.81 0-119.467 53.528-119.467 119.467 0 65.81 53.528 119.467 119.467 119.467 65.81 0 119.467-53.528 119.467-119.467 0-65.94-53.528-119.467-119.467-119.467z m0 168.857c-27.28 0-49.52-22.239-49.52-49.52 0-27.28 22.24-49.39 49.52-49.39 27.28 0 49.39 22.24 49.39 49.39 0.13 27.41-22.11 49.52-49.39 49.52z m475.152-404.428H571.28c-19.265 0-35.039 15.644-35.039 35.038 0 19.265 15.645 35.038 35.039 35.038h239.58c19.264 0 35.038-15.644 35.038-35.038s-15.774-35.038-35.038-35.038z m0 320H571.28c-19.265 0-35.039 15.644-35.039 35.038 0 19.265 15.645 35.038 35.039 35.038h239.58c19.264 0 35.038-15.644 35.038-35.038s-15.774-35.038-35.038-35.038z m0 0" fill="#ffffff" /></svg>