<?xml version="1.0" standalone="no"?><!DOCTYPE svg PUBLIC "-//W3C//DTD SVG 1.1//EN" "http://www.w3.org/Graphics/SVG/1.1/DTD/svg11.dtd"><svg class="icon" width="64px" height="64.00px" viewBox="0 0 1024 1024" version="1.1" xmlns="http://www.w3.org/2000/svg"><path d="M512.000512 81.257675c-237.508345 0-430.737208 193.240119-430.737208 430.748465 0 237.507322 193.228863 430.736185 430.737208 430.736185 237.507322 0 430.759721-193.228863 430.759721-430.736185C942.760233 274.497794 749.50681 81.257675 512.000512 81.257675zM512.000512 887.343597c-206.956515 0-375.314944-168.381965-375.314944-375.337457 0-206.955492 168.357406-375.326201 375.314944-375.326201 206.953446 0 375.337457 168.370709 375.337457 375.326201C887.337969 718.961632 718.953957 887.343597 512.000512 887.343597z" fill="#989898" /><path d="M560.250422 514.12643c14.82259 0 26.815739-11.995195 26.815739-26.793226 0-14.821567-11.993149-26.816762-26.815739-26.816762-14.797008 0-26.793226 11.995195-26.793226 26.816762C533.458219 502.131235 545.453415 514.12643 560.250422 514.12643z" fill="#979797" /><path d="M685.780417 402.961608c-3.980661-34.104749-32.888038-59.8409-67.25066-59.8409l-2.901073 0c-9.267061-50.597375-53.387931-89.102341-106.578364-89.102341-53.290717 0-97.43717 38.652322-106.654089 89.348957-33.060977 1.413186-60.541865 26.459628-64.425312 59.373249l-34.559097 271.253914c-2.261507 19.197224 3.809769 38.517245 16.665565 52.969399 12.831236 14.405081 31.31624 22.714328 50.634214 22.714328l282.353716 0c19.34458 0 37.779442-8.309246 50.610678-22.714328 12.880355-14.452153 18.926048-33.772174 16.665565-53.16485L685.780417 402.961608zM509.05032 299.184033c28.167526 0 51.714825 18.534122 60.072167 43.937698L449.024202 343.121731C457.283306 317.718155 480.929866 299.184033 509.05032 299.184033zM669.951917 696.92985c-4.350075 4.89038-10.349719 7.570419-16.886599 7.570419L370.712625 704.500269c-6.562463 0-12.56006-2.680039-16.912182-7.570419-4.325515-4.866844-6.290263-11.136641-5.553483-17.402345l34.583656-271.281543c1.351787-11.367909 10.988262-19.934005 22.441105-19.934005l213.259058 0c11.453866 0 21.090341 8.566096 22.467711 20.143783l34.509978 270.824125C676.24525 685.793208 674.279479 692.063005 669.951917 696.92985z" fill="#979797" /><path d="M459.742311 514.12643c14.795984 0 26.79118-11.995195 26.79118-26.793226 0-14.821567-11.994172-26.816762-26.79118-26.816762-14.798031 0-26.795273 11.995195-26.795273 26.816762C432.948061 502.131235 444.94428 514.12643 459.742311 514.12643z" fill="#979797" /><path d="M568.731584 538.091238c-12.144598 0-21.950941 9.734712-22.294772 21.827121l-0.36839 0c0 39.795355-14.305821 52.011584-34.512025 52.011584-9.463536 0-37.411051-4.939499-37.411051-52.011584l-0.24764 0c-0.366344-12.092409-10.150174-21.827121-22.317285-21.827121-12.192693 0-22.024619 9.734712-22.317285 21.827121l-0.296759 0c0 57.787124 35.150568 95.346555 83.228563 95.346555 34.461883 0 79.049381-19.098987 79.049381-95.346555l-0.195451 0C590.705038 547.82595 580.921207 538.091238 568.731584 538.091238z" fill="#979797" /><path d="M511.999488 81.588203c-237.32108 0-430.399517 193.089693-430.399517 430.399517 0 237.34564 193.078437 430.424076 430.399517 430.424076 237.34564 0 430.424076-193.078437 430.424076-430.424076C942.423565 274.677896 749.345128 81.588203 511.999488 81.588203zM511.999488 887.032512c-206.792786 0-375.020232-168.227446-375.020232-375.045815 0-206.780507 168.227446-375.020232 375.020232-375.020232s375.043768 168.239725 375.043768 375.020232C887.043257 718.805066 718.792275 887.032512 511.999488 887.032512z" fill="#979797" /></svg>