<?xml version="1.0" standalone="no"?><!DOCTYPE svg PUBLIC "-//W3C//DTD SVG 1.1//EN" "http://www.w3.org/Graphics/SVG/1.1/DTD/svg11.dtd"><svg class="icon" width="48px" height="46.55px" viewBox="0 0 1056 1024" version="1.1" xmlns="http://www.w3.org/2000/svg"><path fill="#dbdbdb" d="M468.48 128c185.6 0 336 150.432 336 336 0 81.408-28.928 156.064-77.12 214.208l0.736 0.512 3.04 2.656 160 160a32 32 0 0 1-42.24 47.904l-3.04-2.656-160-160a32.256 32.256 0 0 1-3.2-3.744A334.496 334.496 0 0 1 468.48 800c-185.536 0-336-150.432-336-336S282.944 128 468.48 128z m0 64a272 272 0 1 0 0 544 272 272 0 0 0 0-544z"  /></svg>