<?xml version="1.0" standalone="no"?><!DOCTYPE svg PUBLIC "-//W3C//DTD SVG 1.1//EN" "http://www.w3.org/Graphics/SVG/1.1/DTD/svg11.dtd"><svg class="icon" width="64px" height="64.00px" viewBox="0 0 1024 1024" version="1.1" xmlns="http://www.w3.org/2000/svg"><path fill="#ffffff" d="M662 496.37c16.56 0 29.97-13.41 29.97-29.97s-13.41-30-29.97-30h-77.61l77.46-77.55c11.73-11.73 11.73-30.66 0-42.45-11.7-11.67-30.63-11.67-42.39 0l-109.98 110.1-109.98-110.1c-11.7-11.67-30.72-11.67-42.42 0-11.73 11.76-11.7 30.72 0 42.45l77.49 77.55h-72.51c-16.56 0-30 13.44-30 30s13.44 29.97 30 29.97h119.94v60h-119.97c-16.56 0-30 13.38-30 29.97s13.44 30.060 30 30.060h119.97v69.96c0 16.59 13.41 30 30 30 16.56 0 30.030-13.41 30.030-30v-69.96h119.97c16.56 0 29.97-13.47 29.97-30.060s-13.41-29.97-29.97-29.97h-119.97v-60h119.97zM511.97 62.030c-248.46 0-449.94 201.48-449.94 449.97s201.45 449.97 449.94 449.97c248.52 0 449.97-201.48 449.97-449.97 0-248.49-201.45-449.97-449.97-449.97v0zM511.97 899.51c-213.99 0-387.48-173.46-387.48-387.48 0-213.99 173.52-387.48 387.48-387.48 214.050 0 387.48 173.52 387.48 387.48 0 214.020-173.43 387.48-387.48 387.48v0zM511.97 899.51z"  /></svg>