<?xml version="1.0" standalone="no"?><!DOCTYPE svg PUBLIC "-//W3C//DTD SVG 1.1//EN" "http://www.w3.org/Graphics/SVG/1.1/DTD/svg11.dtd"><svg class="icon" width="64px" height="64.00px" viewBox="0 0 1024 1024" version="1.1" xmlns="http://www.w3.org/2000/svg"><path d="M555.121778 960c-25.6 0-65.308444-12.401778-103.253334-74.695111l-75.093333-121.571556c-7.281778-11.946667-29.468444-23.495111-43.121778-22.641777l-142.506666 7.281777c-85.333333 4.266667-115.2-31.118222-125.838223-52.451555-10.695111-21.390222-20.081778-67.015111 35.384889-131.868445L185.173333 465.92c8.533333-10.24 13.255111-32.426667 9.386667-45.226667l-43.064889-137.784889c-21.788444-69.12 2.56-106.268444 18.773333-122.481777 16.213333-16.213333 53.76-39.651556 122.88-16.611556l125.838223 41.358222c11.548444 3.868444 32.881778 0.455111 42.666666-6.371555l131.413334-94.72c60.188444-43.52 103.708444-32.028444 123.733333-21.333334 20.081778 10.638222 54.215111 39.651556 52.906667 113.891556l-2.958223 161.735111c-0.455111 11.946667 9.386667 31.573333 18.773334 38.798222l105.813333 80.213334c57.571556 43.975111 59.733333 87.893333 55.864889 110.535111-3.811556 22.584889-20.878222 63.544889-89.998222 84.878222l-137.841778 43.121778c-12.8 3.811556-28.558222 20.48-31.971556 33.28l-32.881777 125.44c-21.731556 82.318222-64.398222 100.693333-88.291556 104.106666a41.756444 41.756444 0 0 1-11.093333 1.251556z m-220.16-282.908444c36.693333 0 77.198222 22.186667 95.971555 52.906666l75.093334 121.628445c21.333333 34.986667 40.561778 45.681778 50.801777 43.918222 9.784889-1.251556 25.144889-17.464889 35.84-56.718222l32.824889-125.44c8.988444-34.133333 40.96-67.811556 74.695111-78.051556l137.784889-43.121778c26.453333-8.135111 43.52-21.333333 46.08-34.986666 2.56-13.653333-9.386667-31.573333-31.573333-48.64l-105.813333-80.213334c-25.998222-19.626667-44.771556-58.88-44.373334-91.306666l3.015111-161.678223c0.398222-28.615111-6.428444-49.948444-18.773333-56.32-12.401778-6.428444-33.28 0-56.775111 16.611556L498.346667 230.4c-25.998222 18.773333-69.12 25.6-100.238223 15.36l-125.895111-41.358222c-26.453333-8.533333-47.786667-8.135111-57.571555 1.706666-9.841778 9.784889-10.695111 31.118222-2.56 57.571556l43.064889 137.841778c10.695111 33.678222 1.308444 79.36-21.731556 105.813333l-84.48 98.133333c-26.908444 31.118222-31.175111 52.906667-26.453333 61.838223 4.266667 8.931556 24.746667 18.773333 65.251555 16.668444l142.506667-7.281778c1.706667 0.455111 3.413333 0.455111 4.721778 0.455111zM934.855111 970.695111a31.630222 31.630222 0 0 1-22.641778-9.386667l-129.251555-129.308444a32.199111 32.199111 0 0 1 0-45.226667 32.199111 32.199111 0 0 1 45.226666 0l129.251556 129.251556a32.199111 32.199111 0 0 1 0 45.283555 31.687111 31.687111 0 0 1-22.584889 9.386667z" fill="#ffffff" /></svg>