<?xml version="1.0" standalone="no"?><!DOCTYPE svg PUBLIC "-//W3C//DTD SVG 1.1//EN" "http://www.w3.org/Graphics/SVG/1.1/DTD/svg11.dtd"><svg class="icon" width="64px" height="64.00px" viewBox="0 0 1024 1024" version="1.1" xmlns="http://www.w3.org/2000/svg"><path fill="#ffffff" d="M39.999 1020.802c-22.403 0-35.2-12.804-35.2-28.799 0-252.804 89.6-384.005 281.602-467.203l3.199 3.198C228.798 467.203 200 393.599 200 310.4 200 140.801 334.4 0 507.203 0c169.6 0 310.395 134.4 310.395 307.203 0 41.596-9.599 86.396-25.595 121.596-12.802 35.2-35.2 63.999-64.004 92.803l-3.199 3.199 3.199 3.198c16 6.402 28.804 12.804 41.601 19.205 6.401 3.197 12.798 6.396 16.001 9.599 3.198 3.199 12.798 9.6 12.798 19.2 0 6.401 0 12.798-3.199 22.398-6.401 9.599-12.802 16.001-28.799 19.199-3.202 0-9.599-3.198-16.001-6.396-25.6-12.802-51.2-28.799-86.401-41.601-51.201 28.799-105.6 41.601-160 41.601-54.399 0-96-12.802-147.196-38.404C139.2 649.601 81.601 796.802 84.799 979.2c0 32.003-22.403 38.399-44.8 38.399v3.203zM500.801 67.203c-134.4 0-246.402 111.996-246.402 243.198 0 134.4 108.799 243.199 246.402 243.199 63.999 0 127.998-25.601 169.599-67.198 25.601-25.6 41.603-51.201 54.4-76.801 12.798-28.799 22.403-60.801 22.403-99.2 0-131.202-112.003-243.198-246.402-243.198zM830.4 1024c-16 0-35.2-16.001-35.2-35.2V873.6H680c-16.001 0-35.2-16.001-35.2-35.2 0-15.996 16.001-35.2 35.2-35.2h118.399V687.998c0-15.995 16.001-35.2 35.2-35.2 16.001 0 35.2 16.001 35.2 35.2v118.404h115.2c16.001 0 35.201 16.001 35.201 35.2 0 15.996-16.001 35.2-35.201 35.2h-115.2v115.201C865.602 1011.202 849.6 1024 830.4 1024z" /></svg>