<?xml version="1.0" standalone="no"?><!DOCTYPE svg PUBLIC "-//W3C//DTD SVG 1.1//EN" "http://www.w3.org/Graphics/SVG/1.1/DTD/svg11.dtd"><svg class="icon" width="48px" height="48.00px" viewBox="0 0 1024 1024" version="1.1" xmlns="http://www.w3.org/2000/svg"><path fill="#ffffff" d="M889.3 1024H134.7C60.4 1024 0 963.5 0 889.1V349.6c0-10.3 5.9-19.7 15.1-24.2 9.3-4.5 20.3-3.4 28.4 2.9L512 693.1l468.5-364.8c8.1-6.3 19.1-7.4 28.4-2.9 9.2 4.5 15.1 13.9 15.1 24.2v539.5c0 74.4-60.4 134.9-134.7 134.9zM53.9 404.7v484.4c0 44.6 36.3 80.9 80.8 80.9h754.5c44.6 0 80.8-36.3 80.8-80.9V404.7L528.5 748.6c-9.7 7.6-23.4 7.6-33.1 0L53.9 404.7zM206.6 472.1h-53.9V27c0-14.9 12.1-27 26.9-27h664.7c14.9 0 26.9 12.1 26.9 27v423.7h-53.9V54H206.6v418.1zM981.1 371.3L821.7 254.4l31.8-43.5L1013 327.8zM10.39 328.244l150.552-116.739 33.03 42.598L43.42 370.84z" /></svg>