<?xml version="1.0" standalone="no"?><!DOCTYPE svg PUBLIC "-//W3C//DTD SVG 1.1//EN" "http://www.w3.org/Graphics/SVG/1.1/DTD/svg11.dtd"><svg class="icon" width="64px" height="64.00px" viewBox="0 0 1024 1024" version="1.1" xmlns="http://www.w3.org/2000/svg"><path fill="#ffffff" d="M895.0452443 802.39082509l-62.55208928-62.41400521-459.68190999-459.68190998h309.30834437L589.32708608 372.94932912 876.12772503 659.74996806c57.58106231-142.08852069 29.41190953-310.68918518-85.75021511-425.98939391-137.80791413-137.80791413-352.39057804-151.61632237-506.07816163-42.25372917l-62.55208929-62.55208928c188.48477235-143.19319334 458.30106917-129.24670103 630.35383572 42.94414958s186.13734295 442.00714747 42.94414958 630.49191981z m-212.9256549-89.20231718h-309.30834437l92.79250332-92.79250331-297.70928145-297.70928143c-82.57428122 149.54506114-61.03316438 340.9295992 65.72802318 467.82887085C382.20096263 938.95598249 619.56750012 943.51275719 774.08358821 805.15250673l61.86166888 61.86166888C647.18431659 1039.4811944 354.58414617 1034.9244197 171.89890528 852.37726288c-182.68524089-182.68524089-187.10393153-475.2854113-14.63691271-664.0463518l14.63691271 14.63691273 510.22068412 510.2206841z"  /></svg>