<?xml version="1.0" standalone="no"?><!DOCTYPE svg PUBLIC "-//W3C//DTD SVG 1.1//EN"
    "http://www.w3.org/Graphics/SVG/1.1/DTD/svg11.dtd">
<svg class="icon" width="200" height="200" viewBox="0 0 1024 1024" version="1.1"
    xmlns="http://www.w3.org/2000/svg">
    <path
        d="M166.5 64.1h691c56.5 0 102.4 45.8 102.4 102.4v691c0 56.5-45.8 102.4-102.4 102.4h-691c-56.5 0-102.4-45.8-102.4-102.4v-691c0-56.6 45.8-102.4 102.4-102.4z"
        fill="#00A7FF" />
    <path
        d="M628.6 571.5s15.8-29.3 33.8-83.4c18-56.3 20.3-85.6 20.3-85.6l-142-2.3v-54.1l171.3-2.3v-38.3H540.7v-87.9h-83.4v87.9h-160v38.3l160-2.3v58.6H328.8v31.6h266s-2.3 24.8-13.5 56.3C570 519.7 561 546.7 561 546.7s-124-49.6-189.3-49.6c-65.4 0-146.5 29.3-153.3 114.9-6.8 85.6 36.1 133 101.4 148.7 65.4 15.8 121.7 0 171.3-29.3 51.8-27 101.4-92.4 101.4-92.4l367.4 191.3 0.5-136.5-331.8-122.3z m-388.3 57.1c0-35.6 20.1-75.7 98-82.4 78-6.7 184.9 62.4 184.9 62.4s-78 106.9-171.6 106.9c-91.2 0-111.3-51.2-111.3-86.9z"
        fill="#FFFFFF" />
</svg>