<?xml version="1.0" standalone="no"?><!DOCTYPE svg PUBLIC "-//W3C//DTD SVG 1.1//EN" "http://www.w3.org/Graphics/SVG/1.1/DTD/svg11.dtd"><svg class="icon" width="64px" height="64.00px" viewBox="0 0 1024 1024" version="1.1" xmlns="http://www.w3.org/2000/svg"><path fill="#ffffff" d="M512.288 80.864c83.808 55.36 222.08 93.632 383.712 105.664L896 576c0 183.136-269.536 384-384 384S128 759.136 128 576L128 186.56C289.92 174.592 428.352 136.288 512.288 80.864M513.6 0l-2.656 0C444.352 68.768 271.776 119.36 64 125.824L64 576c0 222.496 304 448 448 448s448-224.672 448-448L960 125.824C752.48 119.296 580.16 68.736 513.6 0L513.6 0z"  /><path fill="#ffffff" d="M482.752 648.864c-8.192 0-16.384-3.136-22.624-9.376l-135.776-135.776c-12.512-12.512-12.512-32.736 0-45.248s32.736-12.512 45.248 0l135.776 135.776c12.512 12.512 12.512 32.736 0 45.248C499.136 645.76 490.944 648.864 482.752 648.864z"  /><path fill="#ffffff" d="M482.752 648.864c-8.192 0-16.384-3.136-22.624-9.376-12.512-12.512-12.512-32.736 0-45.248l226.272-226.272c12.512-12.512 32.736-12.512 45.248 0s12.512 32.736 0 45.248l-226.272 226.272C499.136 645.76 490.944 648.864 482.752 648.864z"  /></svg>