<?xml version="1.0" standalone="no"?><!DOCTYPE svg PUBLIC "-//W3C//DTD SVG 1.1//EN" "http://www.w3.org/Graphics/SVG/1.1/DTD/svg11.dtd"><svg t="1680916652686" class="icon" viewBox="0 0 1024 1024" version="1.1" xmlns="http://www.w3.org/2000/svg" p-id="7599" xmlns:xlink="http://www.w3.org/1999/xlink" width="48" height="48"><path d="M894.976 576.7168c0 4.4032-1.024 8.704-2.9696 12.4928-36.4544 180.224-196.3008 310.9888-380.2112 310.9888h-4.096v-0.2048c-102.1952-1.024-198.0416-41.2672-270.2336-113.664A384.95232 384.95232 0 0 1 131.8912 589.824l-0.1024-0.3072-0.3072-0.512v-0.1024c-1.6384-3.584-2.4576-7.4752-2.4576-11.5712 0-1.1264 0-1.9456 0.1024-2.8672 0.7168-6.4512 3.4816-12.288 7.5776-16.6912l1.8432-1.8432c1.3312-1.1264 2.6624-2.2528 4.096-3.1744 1.536-0.9216 3.072-1.6384 4.7104-2.3552 3.1744-1.2288 6.7584-1.9456 10.4448-1.9456 11.5712 0 22.016 6.9632 26.624 17.6128 1.536 3.6864 2.2528 7.3728 2.2528 11.264v0.1024c30.8224 154.5216 167.6288 266.4448 325.4272 266.4448 147.3536 0 277.6064-97.8944 318.6688-238.8992H412.16l55.296 55.0912a28.7744 28.7744 0 0 1 0.2048 40.0384c-5.3248 5.3248-12.5952 8.3968-20.0704 8.3968h-0.1024c-7.3728-0.2048-14.4384-3.1744-19.8656-8.3968l-92.8768-92.9792a22.2208 22.2208 0 0 1-4.7104-6.144c-8.6016-5.0176-14.1312-14.4384-14.1312-24.2688 0-15.5648 12.6976-28.2624 28.2624-28.2624h522.5472c13.7216 0 26.112 10.8544 28.0576 24.576v0.6144c0.1024 1.1264 0.2048 2.1504 0.2048 3.072zM893.44 439.296c0 1.024-0.1024 1.8432-0.2048 2.7648v0.4096c-0.2048 1.8432-0.6144 3.584-1.1264 5.3248-0.4096 1.2288-0.8192 2.3552-1.4336 3.4816-1.9456 4.5056-5.12 8.2944-8.9088 11.1616-1.024 0.7168-2.2528 1.4336-3.3792 2.1504-0.3072 0.1024-0.6144 0.3072-1.024 0.512-1.1264 0.512-2.3552 1.024-3.584 1.4336-1.2288 0.4096-2.4576 0.8192-3.7888 1.024-0.2048 0.1024-0.4096 0.1024-0.7168 0.1024-1.536 0.3072-3.072 0.4096-4.608 0.4096-10.9568 0-21.0944-6.4512-25.9072-16.2816-0.1024-0.2048-0.1024-0.3072-0.2048-0.512-1.7408-3.7888-2.6624-7.9872-2.6624-11.9808v-0.512C802.2016 288.768 666.112 180.0192 512.1024 180.0192c-143.9744 0-273.408 95.0272-316.6208 231.936h416.768l-54.8864-54.9888c-10.8544-10.9568-10.9568-28.8768-0.2048-39.8336 5.3248-5.3248 12.5952-8.3968 19.968-8.3968 7.5776 0 14.6432 3.072 19.968 8.4992l92.4672 92.4672c1.7408 1.6384 3.2768 3.6864 4.608 5.9392 8.6016 5.12 14.0288 14.2336 14.1312 24.2688 0 15.5648-12.5952 28.16-28.16 28.16H158.4128c-14.2336 0-26.5216-11.1616-28.0576-25.2928-0.1024-1.024-0.1024-1.9456-0.1024-2.7648 0-4.1984 0.9216-8.192 2.7648-11.8784l0.2048-0.4096v-0.1024a387.77856 387.77856 0 0 1 104.2432-190.1568c72.192-72.192 172.1344-113.664 274.3296-113.664 103.6288 0 201.1136 40.448 274.3296 113.7664A387.81952 387.81952 0 0 1 889.856 425.1648v0.2048c2.3552 4.5056 3.584 9.216 3.584 13.9264z" p-id="7600"></path></svg>