<?xml version="1.0" standalone="no"?><!DOCTYPE svg PUBLIC "-//W3C//DTD SVG 1.1//EN" "http://www.w3.org/Graphics/SVG/1.1/DTD/svg11.dtd"><svg t="1686720809549" class="icon" viewBox="0 0 1024 1024" version="1.1" xmlns="http://www.w3.org/2000/svg" p-id="3801" xmlns:xlink="http://www.w3.org/1999/xlink" width="200" height="200"><path d="M907.776 385.024c-49.152-171.52-206.848-296.96-393.728-296.96-186.368 0-344.064 125.44-393.216 296.448C51.712 399.872 0 461.312 0 534.528v88.064c0 84.992 69.12 153.6 153.6 153.6h1.536c41.472 0 74.752-33.792 74.752-74.752V455.68c0-32.768-20.992-60.928-50.688-70.656 47.104-139.776 179.2-240.128 334.336-240.128 154.624 0 286.72 100.352 333.824 239.104-31.232 9.216-54.272 37.888-54.272 72.192V701.44c0 22.528 10.24 43.008 26.112 56.832-40.96 43.52-131.584 120.32-259.072 118.272h-0.512c-16.384 0-29.696 12.8-29.696 29.184s12.8 30.208 29.184 30.208h5.632c175.104 0 286.72-120.832 318.464-160.256 78.336-7.168 140.288-73.216 140.288-153.088v-88.064c1.024-72.192-48.64-133.12-115.712-149.504zM171.008 701.44c0 8.192-7.168 15.36-15.36 15.36h-1.536c-52.224 0-94.208-42.496-94.208-94.208v-88.064c0-52.224 42.496-94.208 94.208-94.208h1.536c8.704 0 15.36 7.168 15.36 15.36v245.76z m794.112-78.848c0 52.224-42.496 94.208-94.208 94.208h-1.536c-8.192 0-15.36-7.168-15.36-15.36V455.168c0-8.704 7.168-15.36 15.36-15.36h1.536c52.224 0 94.208 42.496 94.208 94.208v88.576z" fill="#2c2c2c" p-id="3802"></path></svg>