<?xml version="1.0" standalone="no"?><!DOCTYPE svg PUBLIC "-//W3C//DTD SVG 1.1//EN"
    "http://www.w3.org/Graphics/SVG/1.1/DTD/svg11.dtd">
<svg t="1682237824325" class="icon" viewBox="0 0 1024 1024" version="1.1"
    xmlns="http://www.w3.org/2000/svg" p-id="5934" width="200" height="200">
    <path
        d="M23.696937 0m35.510956 0l906.919821 0q58.510956 0 58.510956 58.510956l0 906.919821q0 58.510956-58.510956 58.510956l-906.919821 0q-58.510956 0-58.510956-58.510956l0-906.919821q0-58.510956 58.510956-58.510956Z"
        fill="#06B4FD" p-id="5935"></path>
    <path
        d="M628.992779 599.78606s20.332557-29.962485 40.689494-89.863077c21.795331-59.900591 24.696499-92.837384 24.696499-92.837384l-165.659144-1.487153V357.160628l200.521922-1.487153v-41.932852h-200.521922V219.416086h-98.810378v92.837383H239.553606v41.932852l187.454476-1.487153v62.899278h-149.690529v32.936792H586.86489s-2.925548 26.963799-14.53022 59.900591c-13.067447 32.936792-24.696499 61.387745-24.6965 61.387745s-145.302208-52.416065-222.341633-52.416065c-77.015046 0-169.998707 32.961172-178.726592 124.311403-8.727884 91.35023 43.590662 142.254762 117.70454 160.222501 72.651104 17.967739 140.938266 0 200.521923-29.938106 59.583657-29.962485 117.70454-97.347603 117.70454-97.347603L890.536753 828.905212s18.894163-29.938106 33.424383-58.413438A638.671466 638.671466 0 0 0 950.12041 710.591183l-321.152011-110.805123zM319.469821 755.766517C215.198421 755.766517 194.353893 696.719211 194.353893 655.24957c0-41.49402 22.234163-87.766434 109.805561-94.15388C391.755231 554.708244 511.288239 632.893509 511.288239 632.893509S423.716841 755.766517 319.469821 755.766517z"
        fill="#FFFFFF" p-id="5936"></path>
</svg>