<?xml version="1.0" standalone="no"?><!DOCTYPE svg PUBLIC "-//W3C//DTD SVG 1.1//EN" "http://www.w3.org/Graphics/SVG/1.1/DTD/svg11.dtd"><svg t="1686126660242" class="icon" viewBox="0 0 1024 1024" version="1.1" xmlns="http://www.w3.org/2000/svg" p-id="5513" xmlns:xlink="http://www.w3.org/1999/xlink" width="64" height="64"><path d="M512 127.5c51.285 0 99.5 19.972 135.765 56.235C684.029 220 704 268.215 704 319.5s-19.971 99.5-56.235 135.765C611.5 491.528 563.285 511.5 512 511.5s-99.5-19.972-135.765-56.235C339.972 419 320 370.785 320 319.5s19.972-99.5 56.235-135.765C412.5 147.472 460.715 127.5 512 127.5m0-64c-141.385 0-256 114.615-256 256s114.615 256 256 256 256-114.615 256-256-114.615-256-256-256zM512 608c-17.6 0-32 14.4-32 32v160c0 17.6 14.4 32 32 32s32-14.4 32-32V640c0-17.6-14.4-32-32-32z" p-id="5514" fill="#ffffff"></path><path d="M710.282 647.514c49.493 13.756 85.407 27.84 94.539 31.534 4.197 2.212 8.363 4.384 12.416 6.497 25.686 13.394 49.947 26.045 64.556 39.658C892.282 734.979 896 743.198 896 756.615v135.59c0 2.038-0.739 3.239-1.208 3.795H129.208c-0.469-0.556-1.208-1.757-1.208-3.795v-135.59c0-13.417 3.718-21.636 14.207-31.411 14.609-13.613 38.87-26.264 64.556-39.658 4.053-2.113 8.218-4.285 12.416-6.497 9.133-3.694 45.046-17.778 94.539-31.534l151.25 163.89L512 862.368l47.032-50.963 151.25-163.891M689.192 576L512 768 334.808 576C251.786 595.694 192 621.025 192 621.025c-64 33.898-128 61.016-128 135.59v135.59C64 929.492 92.8 960 128 960h768c35.2 0 64-30.508 64-67.795v-135.59c0-74.574-64-101.692-128-135.59 0 0-59.786-25.331-142.808-45.025z" p-id="5515" fill="#ffffff"></path></svg>