<?xml version="1.0" standalone="no"?><!DOCTYPE svg PUBLIC "-//W3C//DTD SVG 1.1//EN" "http://www.w3.org/Graphics/SVG/1.1/DTD/svg11.dtd"><svg t="1691135399923" class="icon" viewBox="0 0 1024 1024" version="1.1" xmlns="http://www.w3.org/2000/svg" p-id="5208" xmlns:xlink="http://www.w3.org/1999/xlink" width="200" height="200"><path d="M778.666667 74.666667a64 64 0 0 1 63.893333 60.245333l0.106667 3.754667v167.253333a53.333333 53.333333 0 0 1-28.928 47.445333l-3.392 1.578667-116.928 50.133333L693.333333 885.333333a64 64 0 0 1-60.245333 63.893334l-3.754667 0.106666h-234.666666a64 64 0 0 1-63.893334-60.245333L330.666667 885.333333l-0.021334-480.170666-104.106666-44.672a74.666667 74.666667 0 0 1-45.077334-64.362667l-0.128-4.266667V138.666667a64 64 0 0 1 60.245334-63.893334L245.333333 74.666667h533.333334z m0 202.666666h-533.333334v14.549334a10.666667 10.666667 0 0 0 4.864 8.96l1.6 0.853333 121.536 52.117333c11.477333 4.053333 19.946667 14.464 21.184 27.008L394.666667 384v501.333333h234.666666l0.085334-501.333333v-0.768l0.106666-1.792 0.170667-1.557333a29.141333 29.141333 0 0 1 0.554667-3.157334l0.234666-0.896a26.346667 26.346667 0 0 1 1.578667-4.565333l0.384-0.853333c0.298667-0.64 0.597333-1.237333 0.938667-1.834667l0.405333-0.704 0.917333-1.493333 1.002667-1.429334 0.469333-0.64c0.426667-0.533333 0.896-1.066667 1.365334-1.6l0.618666-0.661333c0.384-0.426667 0.789333-0.853333 1.237334-1.28l0.938666-0.853333c0.469333-0.426667 0.981333-0.832 1.493334-1.216l0.618666-0.469334a27.669333 27.669333 0 0 1 2.709334-1.792l1.514666-0.832 1.365334-0.661333-1.002667 0.448 0.341333-0.149333 0.853334-0.405334 0.576-0.256 0.64-0.256 0.277333-0.106666L778.666667 298.88V277.333333zM512.064 544a32 32 0 0 1 31.829333 28.928l0.149334 3.093333-0.042667 85.333334a32 32 0 0 1-63.850667 3.050666l-0.149333-3.093333 0.042667-85.333333a32 32 0 0 1 32.021333-31.978667zM778.666667 138.666667h-533.333334V213.333333h533.333334V138.666667z" fill="#4E4E4E" p-id="5209"></path></svg>