<?xml version="1.0" standalone="no"?><!DOCTYPE svg PUBLIC "-//W3C//DTD SVG 1.1//EN" "http://www.w3.org/Graphics/SVG/1.1/DTD/svg11.dtd"><svg t="1681106242551" class="icon" viewBox="0 0 1024 1024" version="1.1" xmlns="http://www.w3.org/2000/svg" p-id="4946" xmlns:xlink="http://www.w3.org/1999/xlink" width="200" height="200"><path d="M0 0h1024v1024H0V0z" fill="#202425" opacity=".01" p-id="4947"></path><path d="M495.786667 38.229333a33.8944 33.8944 0 0 1 32.426666 0l409.565867 222.72c11.0592 6.0416 17.954133 17.681067 17.954133 30.378667v441.344c0 12.6976-6.894933 24.337067-17.954133 30.378667l-409.6 222.685866a33.8944 33.8944 0 0 1-32.392533 0L86.2208 763.050667a34.5088 34.5088 0 0 1-17.954133-30.378667V291.362133c0-12.6976 6.894933-24.337067 17.954133-30.378666l409.6-222.685867z" fill="#11AA66" p-id="4948"></path><path d="M495.786667 38.229333a33.8944 33.8944 0 0 1 32.426666 0l409.565867 222.72c11.0592 6.0416 17.954133 17.681067 17.954133 30.378667v31.744c0 12.6976-6.894933 24.337067-17.954133 30.378667l-409.6 222.685866a33.8944 33.8944 0 0 1-32.392533 0L86.2208 353.450667A34.5088 34.5088 0 0 1 68.266667 323.072v-31.744c0-12.6976 6.894933-24.337067 17.954133-30.378667l409.6-222.685866z" fill="#FFAA44" p-id="4949"></path><path d="M496.605867 305.3568a17.066667 17.066667 0 0 1 30.788266 0L576.853333 408.917333a17.066667 17.066667 0 0 0 13.175467 9.557334l113.800533 15.018666a17.066667 17.066667 0 0 1 9.489067 29.2864l-83.217067 79.018667a17.066667 17.066667 0 0 0-5.051733 15.496533l20.923733 112.8448a17.066667 17.066667 0 0 1-24.917333 18.090667l-100.864-54.749867a17.066667 17.066667 0 0 0-16.315733 0l-100.864 54.749867a17.066667 17.066667 0 0 1-24.917334-18.090667l20.8896-112.8448a17.066667 17.066667 0 0 0-5.0176-15.496533l-83.217066-79.018667a17.066667 17.066667 0 0 1 9.489066-29.2864l113.800534-15.018666a17.066667 17.066667 0 0 0 13.175466-9.557334l49.425067-103.560533z" fill="#FFFFFF" p-id="4950"></path></svg>