<svg xmlns="http://www.w3.org/2000/svg" width="9" height="9" viewBox="0 0 9 9">
  <g id="时间1" transform="translate(-70.4 -70.4)">
    <path id="路径_5638" data-name="路径 5638" d="M74.9,70.4a4.5,4.5,0,1,0,4.5,4.5A4.5,4.5,0,0,0,74.9,70.4Zm0,.652A3.848,3.848,0,1,1,71.052,74.9,3.848,3.848,0,0,1,74.9,71.052Z" transform="translate(0 0)" fill="#222"/>
    <path id="路径_5639" data-name="路径 5639" d="M480.621,226.484V224.31a.31.31,0,1,0-.621,0v2.235a.559.559,0,0,0,.559.559h2.235a.31.31,0,1,0,0-.621Z" transform="translate(-405.312 -150.946)" fill="#222"/>
  </g>
</svg>
