<svg id="组_1376" data-name="组 1376" xmlns="http://www.w3.org/2000/svg" width="70" height="70" viewBox="0 0 70 70">
  <path id="路径_5471" data-name="路径 5471" d="M344.543,280.543m-16.543,0A16.543,16.543,0,1,0,344.543,264,16.543,16.543,0,0,0,328,280.543Z" transform="translate(-309.543 -251.222)" fill="#f27113"/>
  <path id="路径_5472" data-name="路径 5472" d="M180,179.429A34.7,34.7,0,0,0,190,155a35,35,0,1,0-60.143,24.429.14.14,0,0,0,.143.143A34.778,34.778,0,0,0,153.143,190h3.714A34.288,34.288,0,0,0,180,179.429Zm-25-55.143a30.714,30.714,0,0,1,24.571,49.143,36.67,36.67,0,0,0-6.143-12,2.036,2.036,0,0,0-1.714-.857,2.233,2.233,0,0,0-1.714.857,19.308,19.308,0,0,1-15,7.286,19.1,19.1,0,0,1-15-7.286,2.143,2.143,0,0,0-3.429,0,38.147,38.147,0,0,0-6.143,12A30.714,30.714,0,0,1,155,124.286Z" transform="translate(-120 -120)" fill="#f27113"/>
</svg>
