<svg id="组_1375" data-name="组 1375" xmlns="http://www.w3.org/2000/svg" width="70" height="70" viewBox="0 0 70 70">
  <path id="路径_5469" data-name="路径 5469" d="M344.543,297.085A16.543,16.543,0,1,0,328,280.543,16.638,16.638,0,0,0,344.543,297.085Zm0-28.77a12.227,12.227,0,1,1-12.227,12.227A12.217,12.217,0,0,1,344.543,268.315Z" transform="translate(-309.543 -251.222)" fill="#9c9c9c"/>
  <path id="路径_5470" data-name="路径 5470" d="M180,179.429A34.7,34.7,0,0,0,190,155a35,35,0,1,0-60.143,24.429.14.14,0,0,0,.143.143A34.778,34.778,0,0,0,153.143,190h3.714A34.288,34.288,0,0,0,180,179.429Zm-25-55.143a30.714,30.714,0,0,1,24.571,49.143,36.67,36.67,0,0,0-6.143-12A2.143,2.143,0,1,0,170,164a34.454,34.454,0,0,1,6.143,13.286c-.429.286-.714.714-1.143,1-.286.143-.429.429-.714.571-.571.429-1.143.857-1.857,1.429-.143.143-.286.286-.429.286l-2.143,1.286a.5.5,0,0,0-.286.143,17.053,17.053,0,0,1-2.286,1.143c-.143,0-.143.143-.286.143-.857.286-1.571.571-2.429.857-.143,0-.286.143-.429.143a12.1,12.1,0,0,1-2.429.571c-.143,0-.429.143-.571.143-.714.143-1.571.286-2.429.429-.286,0-.429.143-.714.143a31.572,31.572,0,0,1-6,0,1.288,1.288,0,0,1-.714-.143,14.433,14.433,0,0,1-2.429-.429c-.143,0-.429-.143-.571-.143-.857-.143-1.571-.429-2.429-.571-.143,0-.286-.143-.429-.143-.857-.286-1.571-.571-2.429-.857-.143,0-.143-.143-.286-.143A11.389,11.389,0,0,1,140.429,182a.5.5,0,0,1-.286-.143L138,180.571c-.143-.143-.286-.286-.429-.286a16.168,16.168,0,0,1-1.857-1.429c-.286-.143-.429-.429-.714-.571-.429-.286-.714-.714-1.143-1A34.454,34.454,0,0,1,140,164a2.143,2.143,0,1,0-3.429-2.571,38.148,38.148,0,0,0-6.143,12A30.714,30.714,0,0,1,155,124.286Z" transform="translate(-120 -120)" fill="#9c9c9c"/>
</svg>
