<svg xmlns="http://www.w3.org/2000/svg" width="70" height="70" viewBox="0 0 70 70">
  <g id="组_1374" data-name="组 1374" transform="translate(-128 -128)">
    <path id="路径_5462" data-name="路径 5462" d="M324.71,407.91m-4.71,0a4.71,4.71,0,1,0,4.71-4.71A4.71,4.71,0,0,0,320,407.91Z" transform="translate(-174.525 -250.153)" fill="#9c9c9c"/>
    <path id="路径_5463" data-name="路径 5463" d="M465.51,407.91m-4.71,0a4.71,4.71,0,1,0,4.71-4.71A4.71,4.71,0,0,0,460.8,407.91Z" transform="translate(-302.51 -250.153)" fill="#9c9c9c"/>
    <path id="路径_5464" data-name="路径 5464" d="M606.31,407.91m-4.71,0a4.71,4.71,0,1,0,4.71-4.71A4.71,4.71,0,0,0,601.6,407.91Z" transform="translate(-430.496 -250.153)" fill="#9c9c9c"/>
    <path id="路径_5465" data-name="路径 5465" d="M150.75,198h-1.167a3.208,3.208,0,0,1-1.75-2.917V183.417C135.583,178.75,128,168.25,128,157.167,128,140.833,143.75,128,163,128s35,12.833,35,29.167c0,15.75-15.167,28.583-33.833,29.167L152.5,197.417A2.143,2.143,0,0,1,150.75,198ZM163,133.833c-16.333,0-29.167,10.5-29.167,23.333,0,9.333,7,17.5,17.5,21.583a3.208,3.208,0,0,1,1.75,2.917v7l7.583-7A2.329,2.329,0,0,1,163,180.5c16.333,0,29.167-10.5,29.167-23.333S179.333,133.833,163,133.833Z" fill="#9c9c9c"/>
  </g>
</svg>
