<svg id="组_1378" data-name="组 1378" xmlns="http://www.w3.org/2000/svg" width="70" height="70" viewBox="0 0 70 70">
  <path id="路径_5476" data-name="路径 5476" d="M184.236,174.028H136.9a4.221,4.221,0,0,1-4.29-3.709L129.9,128.526a6.052,6.052,0,0,0-3.432-5.135l-4.29-1.854a2.206,2.206,0,0,0-2.86,1.141,2.082,2.082,0,0,0,1.144,2.853l4.147,1.854a1.754,1.754,0,0,1,1,1.569l2.574,41.793a8.558,8.558,0,0,0,8.58,7.7h47.476a2.2,2.2,0,0,0,2.145-2.14A2.327,2.327,0,0,0,184.236,174.028Z" transform="translate(-119.089 -121.374)" fill="#9c9c9c"/>
  <path id="路径_5477" data-name="路径 5477" d="M364.522,242.282A6.905,6.905,0,0,0,359.387,240H315.74a2.14,2.14,0,1,0,0,4.279h43.647a2.3,2.3,0,0,1,1.854.856,3.408,3.408,0,0,1,.713,2l-3.423,18.828v.143a2.594,2.594,0,0,1-2.425,2.282l-37.514,2.853a2.306,2.306,0,0,0-2,2.282,2.168,2.168,0,0,0,2.14,2h.143l37.371-2.853a6.719,6.719,0,0,0,6.276-5.991l3.423-18.971v-.143a5.978,5.978,0,0,0-1.426-5.278Z" transform="translate(-296.089 -229.539)" fill="#9c9c9c"/>
  <path id="路径_5478" data-name="路径 5478" d="M254.592,804.993m-4.992,0A4.992,4.992,0,1,0,254.592,800,4.992,4.992,0,0,0,249.6,804.993Z" transform="translate(-237.932 -739.985)" fill="#9c9c9c"/>
  <path id="路径_5479" data-name="路径 5479" d="M702.592,804.993m-4.992,0A4.992,4.992,0,1,0,702.592,800,4.992,4.992,0,0,0,697.6,804.993Z" transform="translate(-645.856 -739.985)" fill="#9c9c9c"/>
</svg>
