<svg id="组_1377" data-name="组 1377" xmlns="http://www.w3.org/2000/svg" width="70" height="70" viewBox="0 0 70 70">
  <path id="路径_5473" data-name="路径 5473" d="M188.039,134.127a6.94,6.94,0,0,0-5.14-2.264H130.788l-.286-3.4a6,6,0,0,0-3.427-5.093l-4.283-1.839a2.208,2.208,0,0,0-2.855,1.132,2.173,2.173,0,0,0,1.142,2.83l4.14,1.839a1.739,1.739,0,0,1,1,1.556l2.57,41.454a8.523,8.523,0,0,0,8.566,7.64h47.4a2.122,2.122,0,1,0,0-4.244H137.5a4.2,4.2,0,0,1-4.283-3.678l-.143-2.122,46.972-3.537a6.7,6.7,0,0,0,6.282-5.942l3.427-18.817V139.5A7.213,7.213,0,0,0,188.039,134.127Z" transform="translate(-119.774 -121.374)" fill="#f27113"/>
  <path id="路径_5474" data-name="路径 5474" d="M254.585,804.985m-4.985,0A4.985,4.985,0,1,0,254.585,800,4.985,4.985,0,0,0,249.6,804.985Z" transform="translate(-238.011 -739.97)" fill="#f27113"/>
  <path id="路径_5475" data-name="路径 5475" d="M702.585,804.985m-4.985,0A4.985,4.985,0,1,0,702.585,800a4.985,4.985,0,0,0-4.985,4.985Z" transform="translate(-645.994 -739.97)" fill="#f27113"/>
</svg>
