<svg xmlns="http://www.w3.org/2000/svg" width="70" height="68.727" viewBox="0 0 70 68.727">
  <path id="路径_5466" data-name="路径 5466" d="M228.727,199.527,196.909,172.8H195a2.338,2.338,0,0,0-1.909.636l-31.818,26.727c-.636,0-1.273,1.273-1.273,1.909v36.273a3.006,3.006,0,0,0,3.182,3.182h63.636A3.006,3.006,0,0,0,230,238.345V202.073A4.825,4.825,0,0,0,228.727,199.527ZM224.273,235.8H203.909V221.164a8.909,8.909,0,0,0-17.818,0V235.8H165.727V203.345L195,179.164l29.273,24.182Z" transform="translate(-160 -172.8)" fill="#9c9c9c"/>
</svg>
