<svg xmlns="http://www.w3.org/2000/svg" xmlns:xlink="http://www.w3.org/1999/xlink" width="44" height="44" viewBox="0 0 44 44">
  <defs>
    <clipPath id="clip-path">
      <circle id="椭圆_9" data-name="椭圆 9" cx="22" cy="22" r="22" fill="#5e6efe"/>
    </clipPath>
    <linearGradient id="linear-gradient" y1="0.5" x2="1" y2="0.5" gradientUnits="objectBoundingBox">
      <stop offset="0" stop-color="#6b7afe"/>
      <stop offset="1" stop-color="#fff" stop-opacity="0.169"/>
    </linearGradient>
    <linearGradient id="linear-gradient-2" y1="0.5" x2="1" y2="0.5" gradientUnits="objectBoundingBox">
      <stop offset="0" stop-color="#6b79fe"/>
      <stop offset="1" stop-color="#fff"/>
    </linearGradient>
    <clipPath id="clip-path-2">
      <rect id="矩形_1105" data-name="矩形 1105" width="44" height="44" fill="none"/>
    </clipPath>
  </defs>
  <g id="云游世界" transform="translate(-229.918 -125.097)">
    <g id="组_1350" data-name="组 1350" transform="translate(229.918 125.097)">
      <g id="组_1349" data-name="组 1349">
        <circle id="椭圆_6" data-name="椭圆 6" cx="22" cy="22" r="22" fill="#5e6efe"/>
        <g id="组_1348" data-name="组 1348" clip-path="url(#clip-path)">
          <circle id="椭圆_7" data-name="椭圆 7" cx="6.6" cy="6.6" r="6.6" transform="translate(27.28 10.56)" opacity="0.55" fill="url(#linear-gradient)"/>
          <circle id="椭圆_8" data-name="椭圆 8" cx="15.4" cy="15.4" r="15.4" transform="translate(-3.96 14.08)" opacity="0.3" fill="url(#linear-gradient-2)"/>
        </g>
      </g>
    </g>
    <g id="组_1353" data-name="组 1353" transform="translate(229.918 125.097)">
      <g id="组_1352" data-name="组 1352">
        <g id="组_1351" data-name="组 1351" clip-path="url(#clip-path-2)">
          <path id="路径_5438" data-name="路径 5438" d="M273.429,173.252a19.882,19.882,0,0,0-3.62-4.577c-.545-.572-.511-1.008-.314-2.309v-.15c.13-.892.355-1.417,3.355-1.894a2.066,2.066,0,0,1,2.482,1.212l.184.279a2.957,2.957,0,0,0,1.507,1.219c.266.123.593.273,1.036.524,1.077.592,1.077,1.267,1.077,2.752v.171a6.3,6.3,0,0,1-1.213,4.086,13.845,13.845,0,0,1-4.459,2.582,4.98,4.98,0,0,0,0-3.876l-.034-.02Zm-4.52-22.918a13.719,13.719,0,0,1,5.973,1.362,12.725,12.725,0,0,0-3.014,2.418c-.218.3-.4.579-.579.838-.573.865-.853,1.253-1.364,1.315a5.933,5.933,0,0,1-.989,0c-1-.068-2.366-.15-2.8,1.035a4.7,4.7,0,0,0,.573,3.862.945.945,0,0,1,.075.838,1.64,1.64,0,0,1-.484.756,4.434,4.434,0,0,1-.682-.682,4.424,4.424,0,0,0-1.95-1.546c-.293-.082-.62-.15-.934-.218-.886-.184-1.882-.4-2.114-.893a3.494,3.494,0,0,1-.17-1.362,5.132,5.132,0,0,0-.327-2.166,2.078,2.078,0,0,0-1.3-1.158,13.766,13.766,0,0,1,10.091-4.4Zm-15,13.785a15,15,0,1,0,15-14.984,14.992,14.992,0,0,0-15,14.984Zm0,0" transform="translate(-246.909 -141.119)" fill="#fff"/>
        </g>
      </g>
    </g>
  </g>
</svg>
