<svg xmlns="http://www.w3.org/2000/svg" width="20" height="20" viewBox="0 0 20 20">
  <g id="定位" transform="translate(-15 -56)">
    <rect id="矩形_1077" data-name="矩形 1077" width="20" height="20" transform="translate(15 56)" fill="none"/>
    <path id="路径_5390" data-name="路径 5390" d="M138.974,101.469a.675.675,0,1,1-.859-1.042c3.18-2.62,4.734-4.954,4.734-6.957a6.75,6.75,0,1,0-13.5,0c0,2.431,2.287,5.338,6.943,8.638a.675.675,0,1,1-.781,1.1C130.532,99.679,128,96.461,128,93.47a8.1,8.1,0,1,1,16.2,0C144.2,95.967,142.434,98.618,138.974,101.469ZM136.1,96.583a3.15,3.15,0,1,1,3.15-3.15A3.15,3.15,0,0,1,136.1,96.583Zm0-1.35a1.8,1.8,0,1,0-1.8-1.8A1.8,1.8,0,0,0,136.1,95.233Z" transform="translate(-111 -28.333)" fill="#222"/>
  </g>
</svg>
