<svg xmlns="http://www.w3.org/2000/svg" width="32" height="32" viewBox="0 0 32 32">
  <g id="景点攻略" transform="translate(-20 -391.961)">
    <rect id="矩形_1109" data-name="矩形 1109" width="30.13" height="6.409" rx="3.205" transform="translate(20.916 414.945)" fill="#fbc409"/>
    <rect id="矩形_1110" data-name="矩形 1110" width="32" height="32" transform="translate(20 391.961)" fill="none"/>
    <path id="路径_5452" data-name="路径 5452" d="M120.761,110.272a.673.673,0,0,0-.652-.508,5.613,5.613,0,0,1-5.415-3.575.672.672,0,0,0-.638-.46v-2.69h.663a.673.673,0,0,0,.313-.077l2.691-1.412a.673.673,0,0,0-.313-1.268c-4.472,0-8.2-3.779-8.249-3.829,0,0,0-.008-.007-.011l-.1-.081a.512.512,0,0,0-.1-.048l-.036-.016a.425.425,0,0,0-.111-.037.66.66,0,0,0-.092,0c-.014,0-.027-.008-.042-.008h0c-.009,0-.016,0-.025.005a.626.626,0,0,0-.212.043.659.659,0,0,0-.115.067.79.79,0,0,0-.125.08s0,.008-.007.011c-.043.044-3.751,3.829-8.241,3.829a.672.672,0,0,0-.313,1.268l2.691,1.412a.669.669,0,0,0,.313.077h.654v2.69a.673.673,0,0,0-.638.46,5.663,5.663,0,0,1-5.415,3.575.673.673,0,0,0-.319,1.265l2.623,1.413a.675.675,0,0,0,.319.08h.74v7.267a.673.673,0,0,0,1.345,0v-.836l1.345-.37v.534a.673.673,0,1,0,1.345,0v-.739l8.07.057v.681a.673.673,0,1,0,1.345,0v-.488l1.345.336v.824a.673.673,0,0,0,1.345,0v-7.267h.74a.678.678,0,0,0,.319-.08l2.623-1.413A.673.673,0,0,0,120.761,110.272Zm-8.05-4.543h-1.345v-2.69h1.345Zm-2.69-2.69v2.69h-2.69v-2.69Zm-7.832-1.67a15.347,15.347,0,0,0,6.488-3.523,15.384,15.384,0,0,0,6.5,3.523l-.618.325H102.808l-.619-.325Zm2.452,1.67h1.345v2.69h-1.345Zm-2.69,14.519v-5.036H103.3v4.666Zm2.69-.525v-4.511h8.071v4.568Zm10.761.546-1.345-.336v-4.721H115.4Zm1.915-6.4H100.035l-.658-.355a7.079,7.079,0,0,0,4.36-3.748h9.878a7.077,7.077,0,0,0,4.36,3.748Z" transform="translate(-72.823 298.501)" fill="#505050" stroke="#505050" stroke-width="0.1"/>
  </g>
</svg>
