<svg xmlns="http://www.w3.org/2000/svg" xmlns:xlink="http://www.w3.org/1999/xlink" width="44" height="44" viewBox="0 0 44 44">
  <defs>
    <clipPath id="clip-path">
      <circle id="椭圆_17" data-name="椭圆 17" cx="22" cy="22" r="22" transform="translate(0 0)" fill="#22cd77"/>
    </clipPath>
    <linearGradient id="linear-gradient" y1="0.5" x2="1" y2="0.5" gradientUnits="objectBoundingBox">
      <stop offset="0" stop-color="#22cd77"/>
      <stop offset="1" stop-color="#fff" stop-opacity="0.169"/>
    </linearGradient>
    <linearGradient id="linear-gradient-2" y1="0.5" x2="1" y2="0.5" gradientUnits="objectBoundingBox">
      <stop offset="0" stop-color="#22cd77"/>
      <stop offset="1" stop-color="#fff"/>
    </linearGradient>
    <clipPath id="clip-path-2">
      <rect id="矩形_1107" data-name="矩形 1107" width="26" height="22" transform="translate(0.2 0)" fill="none"/>
    </clipPath>
  </defs>
  <g id="景点解说员" transform="translate(-496.5 -128.892)">
    <g id="组_1360" data-name="组 1360" transform="translate(496.5 128.892)">
      <circle id="椭圆_14" data-name="椭圆 14" cx="22" cy="22" r="22" transform="translate(0 0)" fill="#22cd77"/>
      <g id="组_1359" data-name="组 1359" transform="translate(0 0)" clip-path="url(#clip-path)">
        <circle id="椭圆_15" data-name="椭圆 15" cx="6.5" cy="6.5" r="6.5" transform="translate(27 11)" opacity="0.55" fill="url(#linear-gradient)"/>
        <circle id="椭圆_16" data-name="椭圆 16" cx="15.5" cy="15.5" r="15.5" transform="translate(-4 14)" opacity="0.3" fill="url(#linear-gradient-2)"/>
      </g>
    </g>
    <g id="组_1363" data-name="组 1363" transform="translate(505.3 139.892)">
      <g id="组_1362" data-name="组 1362" transform="translate(0 0)">
        <g id="组_1361" data-name="组 1361" clip-path="url(#clip-path-2)">
          <path id="路径_5441" data-name="路径 5441" d="M525.955,153.936a5.683,5.683,0,0,0-4.04,1.662,5.663,5.663,0,0,0,0,8.037,5.741,5.741,0,0,0,8.079,0,5.662,5.662,0,0,0,0-8.037,5.706,5.706,0,0,0-4.04-1.662Zm3.165,13.158a1.192,1.192,0,0,0-.241-.015,1.4,1.4,0,0,0-1.115.544c-.467.6-1.025,1.314-1.538,2.009l-.165.212-.181-.212q-.8-.977-1.613-1.949a1.372,1.372,0,0,0-1.086-.5,1.825,1.825,0,0,0-.3.03,7.919,7.919,0,0,0-6.375,7.039,1.345,1.345,0,0,0,1.326,1.465h13.822c.015-.363-.015-7.13-.015-7.749a8.178,8.178,0,0,0-2.517-.876Zm13.611-2.84-.588-.666.015-7.416.573-.649c.286-.393.135-.71-.347-.725h-8.323a.679.679,0,0,0-1.338.151v20.272a.678.678,0,0,0,1.356,0V164.964h8.3c.483,0,.649-.318.347-.71Zm0,0" transform="translate(-516.5 -153.917)" fill="#fff"/>
        </g>
      </g>
    </g>
  </g>
</svg>
