<svg xmlns="http://www.w3.org/2000/svg" width="32" height="32" viewBox="0 0 32 32">
  <g id="智能导游" transform="translate(-20 -391.961)">
    <rect id="矩形_1109" data-name="矩形 1109" width="30.13" height="6.409" rx="3.205" transform="translate(21 414.945)" fill="#fbc409"/>
    <rect id="矩形_1110" data-name="矩形 1110" width="32" height="32" transform="translate(20 391.961)" fill="none"/>
    <g id="组_1372" data-name="组 1372" transform="translate(22 283.34)">
      <path id="路径_5456" data-name="路径 5456" d="M14.75,124.494a6.746,6.746,0,1,0-11.216-.008A9.037,9.037,0,0,0,0,131.751a9.175,9.175,0,0,0,.595,3.259.946.946,0,0,0,.885.611l9.171,0a.948.948,0,0,0,0-1.9l-8.487,0a7.292,7.292,0,0,1-.269-1.974,7.144,7.144,0,0,1,3.452-6.211,1.04,1.04,0,0,0,.147-.1.949.949,0,0,0,.2-1.271.978.978,0,0,0-.117-.141,4.846,4.846,0,1,1,7.107.024.945.945,0,0,0-.244.779.961.961,0,0,0,.451.682,7.283,7.283,0,0,1,3.053,8.81.948.948,0,0,0,1.773.671,9.1,9.1,0,0,0,.592-3.245A9.228,9.228,0,0,0,14.75,124.494Zm3.968-1.037a1.352,1.352,0,1,0,1.352,1.352A1.354,1.354,0,0,0,18.718,123.457Zm3.4-2.917a.948.948,0,1,0-1.412,1.266,4.508,4.508,0,0,1,0,6.013.948.948,0,0,0,1.412,1.266,6.407,6.407,0,0,0,0-8.544Z" fill="#515151"/>
      <path id="路径_5457" data-name="路径 5457" d="M859.138,231.934a.949.949,0,1,0-1.377,1.306,8.836,8.836,0,0,1,0,12.029.948.948,0,1,0,1.374,1.306,10.729,10.729,0,0,0,0-14.641Z" transform="translate(-834.212 -114.444)" fill="#515151"/>
    </g>
  </g>
</svg>
