<svg xmlns="http://www.w3.org/2000/svg" width="32" height="32" viewBox="0 0 32 32">
  <g id="本地美食" transform="translate(-20 -391.961)">
    <rect id="矩形_1109" data-name="矩形 1109" width="30.13" height="6.409" rx="3.205" transform="translate(21 414.945)" fill="#fbc409"/>
    <rect id="矩形_1110" data-name="矩形 1110" width="32" height="32" transform="translate(20 391.961)" fill="none"/>
    <g id="组_1371" data-name="组 1371" transform="translate(22 396.667)">
      <path id="路径_5453" data-name="路径 5453" d="M24.629,769.393a1.4,1.4,0,0,1,0,2.787H2.593a1.4,1.4,0,0,1,0-2.787H24.629m0-1.393H2.593a2.794,2.794,0,0,0,0,5.574H24.629a2.794,2.794,0,0,0,0-5.574Z" transform="translate(0 -751.279)" fill="#515151" stroke="#505050" stroke-width="0.3"/>
      <path id="路径_5454" data-name="路径 5454" d="M109.256,289.393a10.593,10.593,0,0,1,10.173,9.057H99.083a10.593,10.593,0,0,1,10.173-9.057m0-1.393c-6.224,0-11.3,5.244-11.633,11.844h23.267C120.551,293.244,115.48,288,109.256,288Z" transform="translate(-95.645 -281.756)" fill="#515151" stroke="#505050" stroke-width="0.3"/>
      <path id="路径_5455" data-name="路径 5455" d="M515.241,1.338a1.976,1.976,0,0,1,1.944,2.007,1.945,1.945,0,1,1-3.889,0,1.98,1.98,0,0,1,1.944-2.007m0-1.338A3.294,3.294,0,0,0,512,3.345a3.242,3.242,0,1,0,6.481,0A3.294,3.294,0,0,0,515.241,0Zm5.834,13.381a.64.64,0,0,1-.519-.268,5.4,5.4,0,0,0-4.022-2.408.669.669,0,0,1,0-1.338,6.68,6.68,0,0,1,5.055,2.944.687.687,0,0,1,.061.7.647.647,0,0,1-.578.371Z" transform="translate(-501.63 0.553)" fill="#515151"/>
    </g>
  </g>
</svg>
