<svg xmlns="http://www.w3.org/2000/svg" width="32" height="32" viewBox="0 0 32 32">
  <g id="活动商品" transform="translate(-20 -391.961)">
    <rect id="矩形_1109" data-name="矩形 1109" width="30.13" height="6.409" rx="3.205" transform="translate(20.916 414.945)" fill="#fbc409"/>
    <g id="组_1369" data-name="组 1369" transform="translate(23.662 394.559)">
      <path id="路径_5444" data-name="路径 5444" d="M198.077,116.927h2.006a5.1,5.1,0,0,1-.858-.951,1.523,1.523,0,0,1-.334-1.335,1.324,1.324,0,0,1,1.207-.522h.116a5.48,5.48,0,0,1,2.515.706,5.905,5.905,0,0,1,2.123,1.811,3.718,3.718,0,0,1,.189.322h2.675a3.714,3.714,0,0,1,.189-.322,5.905,5.905,0,0,1,2.123-1.811,5.726,5.726,0,0,1,2.515-.706h.116a1.324,1.324,0,0,1,1.207.522,1.515,1.515,0,0,1-.334,1.335,4.661,4.661,0,0,1-.858.951h2.006c.015-.031.029-.046.044-.077a2.95,2.95,0,0,0,.451-2.9,2.641,2.641,0,0,0-2.457-1.381,6.892,6.892,0,0,0-3.344.859,7.276,7.276,0,0,0-2.661,2.3,5.975,5.975,0,0,0-.334.583,3.987,3.987,0,0,0-.334-.583,7.421,7.421,0,0,0-2.661-2.3,6.8,6.8,0,0,0-3.329-.859,2.625,2.625,0,0,0-2.457,1.381,2.95,2.95,0,0,0,.451,2.9A.167.167,0,0,0,198.077,116.927Z" transform="translate(-194.156 -112.567)" fill="#505050"/>
      <path id="路径_5445" data-name="路径 5445" d="M112.718,258.048H90.927a1.349,1.349,0,0,0-1.327,1.381v4.635a1.349,1.349,0,0,0,1.327,1.381h.413v11.264a1.349,1.349,0,0,0,1.327,1.381h18.341a1.349,1.349,0,0,0,1.327-1.381V265.46h.413a1.349,1.349,0,0,0,1.327-1.381v-4.65A1.4,1.4,0,0,0,112.718,258.048Zm-21.644,1.535h9.982v4.328H91.074Zm1.725,5.924h8.242v11.049H92.8Zm18.046,11.049H102.6V265.506h8.242Zm1.725-12.63h-9.982v-4.343h9.982Z" transform="translate(-89.6 -253.687)" fill="#505050"/>
    </g>
    <rect id="矩形_1110" data-name="矩形 1110" width="32" height="32" transform="translate(20 391.961)" fill="none"/>
  </g>
</svg>
