<svg xmlns="http://www.w3.org/2000/svg" xmlns:xlink="http://www.w3.org/1999/xlink" width="44" height="44" viewBox="0 0 44 44">
  <defs>
    <clipPath id="clip-path">
      <circle id="椭圆_21" data-name="椭圆 21" cx="22" cy="22" r="22" transform="translate(0 0)" fill="#ff9c0e"/>
    </clipPath>
    <linearGradient id="linear-gradient" y1="0.5" x2="1" y2="0.5" gradientUnits="objectBoundingBox">
      <stop offset="0" stop-color="#ff9c0e"/>
      <stop offset="1" stop-color="#fff" stop-opacity="0.169"/>
    </linearGradient>
    <linearGradient id="linear-gradient-2" y1="0.5" x2="1" y2="0.5" gradientUnits="objectBoundingBox">
      <stop offset="0" stop-color="#ff9c0e"/>
      <stop offset="1" stop-color="#fff"/>
    </linearGradient>
    <clipPath id="clip-path-2">
      <rect id="矩形_1108" data-name="矩形 1108" width="23.32" height="26.4" fill="none"/>
    </clipPath>
  </defs>
  <g id="策略顾问" transform="translate(-618.577 -131.07)">
    <g id="组_1365" data-name="组 1365" transform="translate(618.577 131.07)">
      <circle id="椭圆_18" data-name="椭圆 18" cx="22" cy="22" r="22" transform="translate(0 0)" fill="#ff9c0e"/>
      <g id="组_1364" data-name="组 1364" clip-path="url(#clip-path)">
        <circle id="椭圆_19" data-name="椭圆 19" cx="6.5" cy="6.5" r="6.5" transform="translate(27 11)" opacity="0.55" fill="url(#linear-gradient)"/>
        <circle id="椭圆_20" data-name="椭圆 20" cx="15.5" cy="15.5" r="15.5" transform="translate(-4 14)" opacity="0.3" fill="url(#linear-gradient-2)"/>
      </g>
    </g>
    <g id="组_1368" data-name="组 1368" transform="translate(628.917 139.87)">
      <g id="组_1367" data-name="组 1367" transform="translate(0 0)">
        <g id="组_1366" data-name="组 1366" clip-path="url(#clip-path-2)">
          <path id="路径_5442" data-name="路径 5442" d="M653.428,165.182a6.662,6.662,0,1,0,6.662-6.588,6.625,6.625,0,0,0-6.662,6.588Zm0,0" transform="translate(-648.433 -155.283)" fill="#fff"/>
          <path id="路径_5443" data-name="路径 5443" d="M644.864,165.387a.534.534,0,0,0,.378-.15.522.522,0,0,0,.158-.37V161.1a8.372,8.372,0,0,1,16.665-.749v4.519a.529.529,0,0,0,.538.521h.347a.612.612,0,0,0,.153-.02,2.77,2.77,0,0,0,2.043-2.643,2.712,2.712,0,0,0-1.031-2.125,10.4,10.4,0,0,0-20.721-.031,2.717,2.717,0,0,0-1.074,2.156,2.767,2.767,0,0,0,2.044,2.643.518.518,0,0,0,.151.02Zm20.509,10.351a11.27,11.27,0,0,0-6.3-8.332,8.728,8.728,0,0,1-10.686,0,11.27,11.27,0,0,0-6.3,8.332,1.491,1.491,0,0,0,.356,1.2,1.525,1.525,0,0,0,1.157.516H663.86a1.522,1.522,0,0,0,1.16-.514,1.488,1.488,0,0,0,.356-1.207Zm-7.615-.716H649.71a1.008,1.008,0,0,1-.712-.283.986.986,0,0,1-.3-.7,1,1,0,0,1,1.013-.98h8.049a.981.981,0,1,1,0,1.962Zm0,0" transform="translate(-642.077 -151.091)" fill="#fff"/>
        </g>
      </g>
    </g>
  </g>
</svg>
