<svg xmlns="http://www.w3.org/2000/svg" width="32" height="32" viewBox="0 0 32 32">
  <g id="酒店预订" transform="translate(-20 -391.961)">
    <rect id="矩形_1109" data-name="矩形 1109" width="30.13" height="6.409" rx="3.205" transform="translate(21 414.945)" fill="#fbc409"/>
    <rect id="矩形_1110" data-name="矩形 1110" width="32" height="32" transform="translate(20 391.961)" fill="none"/>
    <path id="路径_5451" data-name="路径 5451" d="M121.125,106.667a1.886,1.886,0,0,1,1.886,1.886v4.5l6.182,3.75a2.829,2.829,0,0,1,1.358,2.271l0,.148v11.042l-.191.294h-23.5l-.2-.267V108.553a1.886,1.886,0,0,1,1.886-1.886ZM123.011,115l.011,13.854H129l-.076-9.638a.943.943,0,0,0-.373-.751l-.081-.055Zm-1.552-6.624H108.142l.009,20.478h13.317Zm-3.476,10.86v1.886H111.7v-1.886Zm0-6.286v1.886H111.7v-1.886Z" transform="translate(-82.667 288.407)" fill="#505050"/>
  </g>
</svg>
